# 3ds Max Wavefront OBJ Exporter v0.97b - (c)2007 guruware
# File Created: 11.06.2018 16:01:50

mtllib arrow.mtl

#
# object Pyramid001
#

v  10.00000 18.80500 -10.00000
v  9.60000 0.00500 3.10000
v  10.40000 0.00500 3.10000
v  10.40000 0.00500 -23.10000
v  9.60000 0.00500 -23.10000
v  10.00000 0.00500 -10.00000
# 6 vertices

vn 0.00000 1.00000 -0.00000
vn -0.55654 -0.38310 0.73722
vn 0.55654 -0.38310 0.73722
vn 0.55654 -0.38310 -0.73722
vn -0.55654 -0.38310 -0.73722
vn 0.00000 -1.00000 -0.00000
# 6 vertex normals

vt 0.50000 1.00000 0.00000
vt 0.00000 0.00000 0.00000
vt 1.00000 0.00000 0.00000
vt 0.48473 0.00000 0.00000
vt 1.48473 0.00000 0.00000
vt 0.00000 1.00000 0.00000
vt 0.50000 0.50000 0.00000
vt 1.00000 1.00000 0.00000
# 8 texture coords

o Pyramid001
g Pyramid001
usemtl wire_154215229
s 4
f 1/1/1 2/2/2 3/3/3 
s 2
f 1/1/1 3/4/3 4/5/4 
s 16
f 1/1/1 4/2/4 5/3/5 
s 32
f 1/1/1 5/4/5 2/5/2 
s 8
f 2/6/2 6/7/6 3/8/3 
f 3/8/3 6/7/6 4/3/4 
f 4/3/4 6/7/6 5/2/5 
f 5/2/5 6/7/6 2/6/2 
# 0 polygons - 8 triangles

