# 3ds Max Wavefront OBJ Exporter v0.97b - (c)2007 guruware
# File Created: 29.01.2019 12:01:35

mtllib DOORWAYOBJ.mtl

#
# object Box001
#

v  0.0000 0.0000 70.0000
v  0.0000 0.0000 56.0000
v  10.0000 0.0000 56.0000
v  10.0000 0.0000 70.0000
v  20.0000 0.0000 56.0000
v  20.0000 0.0000 70.0000
v  30.0000 0.0000 56.0000
v  30.0000 0.0000 70.0000
v  40.0000 0.0000 56.0000
v  40.0000 0.0000 70.0000
v  50.0000 0.0000 56.0000
v  50.0000 0.0000 70.0000
v  0.0000 0.0000 42.0000
v  10.0000 0.0000 42.0000
v  20.0000 0.0000 42.0000
v  30.0000 0.0000 42.0000
v  40.0000 0.0000 42.0000
v  50.0000 0.0000 42.0000
v  20.0000 0.0000 28.0000
v  30.0000 0.0000 28.0000
v  40.0000 0.0000 28.0000
v  50.0000 0.0000 28.0000
v  0.0000 0.0000 28.0000
v  0.0000 0.0000 14.0000
v  10.0000 0.0000 14.0000
v  10.0000 0.0000 28.0000
v  20.0000 0.0000 14.0000
v  30.0000 0.0000 14.0000
v  40.0000 0.0000 14.0000
v  50.0000 0.0000 14.0000
v  0.0000 0.0000 -0.0000
v  10.0000 0.0000 -0.0000
v  20.0000 0.0000 -0.0000
v  30.0000 0.0000 -0.0000
v  40.0000 0.0000 -0.0000
v  50.0000 0.0000 -0.0000
v  0.0000 10.0000 70.0000
v  10.0000 10.0000 70.0000
v  10.0000 10.0000 56.0000
v  0.0000 10.0000 56.0000
v  20.0000 10.0000 70.0000
v  20.0000 10.0000 56.0000
v  30.0000 10.0000 70.0000
v  30.0000 10.0000 56.0000
v  40.0000 10.0000 70.0000
v  40.0000 10.0000 56.0000
v  50.0000 10.0000 70.0000
v  50.0000 10.0000 56.0000
v  10.0000 10.0000 42.0000
v  0.0000 10.0000 42.0000
v  20.0000 10.0000 42.0000
v  30.0000 10.0000 42.0000
v  40.0000 10.0000 42.0000
v  50.0000 10.0000 42.0000
v  30.0000 10.0000 28.0000
v  20.0000 10.0000 28.0000
v  40.0000 10.0000 28.0000
v  50.0000 10.0000 28.0000
v  0.0000 10.0000 28.0000
v  10.0000 10.0000 28.0000
v  10.0000 10.0000 14.0000
v  0.0000 10.0000 14.0000
v  20.0000 10.0000 14.0000
v  30.0000 10.0000 14.0000
v  40.0000 10.0000 14.0000
v  50.0000 10.0000 14.0000
v  10.0000 10.0000 -0.0000
v  0.0000 10.0000 -0.0000
v  20.0000 10.0000 -0.0000
v  30.0000 10.0000 -0.0000
v  40.0000 10.0000 -0.0000
v  50.0000 10.0000 -0.0000
# 72 vertices

vn -0.5774 -0.5774 0.5774
vn -0.7071 -0.7071 -0.0000
vn 0.0000 -1.0000 -0.0000
vn 0.0000 -0.7071 0.7071
vn 0.7071 -0.7071 -0.0000
vn 0.5774 -0.5774 0.5774
vn -0.5774 -0.5774 -0.5774
vn 0.0000 -0.7071 -0.7071
vn 0.5774 -0.5774 -0.5774
vn -0.5774 0.5774 0.5774
vn 0.0000 0.7071 0.7071
vn 0.0000 1.0000 -0.0000
vn -0.7071 0.7071 -0.0000
vn 0.5774 0.5774 0.5774
vn 0.7071 0.7071 -0.0000
vn 0.0000 0.7071 -0.7071
vn -0.5774 0.5774 -0.5774
vn 0.5774 0.5774 -0.5774
# 18 vertex normals

vt 1.0000 0.0000 0.0000
vt 1.0000 0.2000 0.0000
vt 0.8000 0.2000 0.0000
vt 0.8000 0.0000 0.0000
vt 0.6000 0.2000 0.0000
vt 0.6000 0.0000 0.0000
vt 0.4000 0.2000 0.0000
vt 0.4000 0.0000 0.0000
vt 0.2000 0.2000 0.0000
vt 0.2000 0.0000 0.0000
vt 0.0000 0.2000 0.0000
vt 0.0000 0.0000 0.0000
vt 1.0000 0.4000 0.0000
vt 0.8000 0.4000 0.0000
vt 0.6000 0.4000 0.0000
vt 0.4000 0.4000 0.0000
vt 0.2000 0.4000 0.0000
vt 0.0000 0.4000 0.0000
vt 0.6000 0.6000 0.0000
vt 0.4000 0.6000 0.0000
vt 0.2000 0.6000 0.0000
vt 0.0000 0.6000 0.0000
vt 1.0000 0.6000 0.0000
vt 1.0000 0.8000 0.0000
vt 0.8000 0.8000 0.0000
vt 0.8000 0.6000 0.0000
vt 0.6000 0.8000 0.0000
vt 0.4000 0.8000 0.0000
vt 0.2000 0.8000 0.0000
vt 0.0000 0.8000 0.0000
vt 1.0000 1.0000 0.0000
vt 0.8000 1.0000 0.0000
vt 0.6000 1.0000 0.0000
vt 0.4000 1.0000 0.0000
vt 0.2000 1.0000 0.0000
vt 0.0000 1.0000 0.0000
# 36 texture coords

o Box001
g Box001
usemtl wire_177148027
s 2
f 1/1/1 2/2/2 3/3/3 4/4/4 
f 4/4/4 3/3/3 5/5/3 6/6/4 
f 6/6/4 5/5/3 7/7/3 8/8/4 
f 8/8/4 7/7/3 9/9/3 10/10/4 
f 10/10/4 9/9/3 11/11/5 12/12/6 
f 2/2/2 13/13/2 14/14/3 3/3/3 
f 3/3/3 14/14/3 15/15/3 5/5/3 
f 5/5/3 15/15/3 16/16/3 7/7/3 
f 7/7/3 16/16/3 17/17/3 9/9/3 
f 9/9/3 17/17/3 18/18/5 11/11/5 
f 15/15/3 19/19/3 20/20/3 16/16/3 
f 16/16/3 20/20/3 21/21/3 17/17/3 
f 17/17/3 21/21/3 22/22/5 18/18/5 
f 23/23/2 24/24/2 25/25/3 26/26/3 
f 26/26/3 25/25/3 27/27/3 19/19/3 
f 19/19/3 27/27/3 28/28/3 20/20/3 
f 20/20/3 28/28/3 29/29/3 21/21/3 
f 21/21/3 29/29/3 30/30/5 22/22/5 
f 24/24/2 31/31/7 32/32/8 25/25/3 
f 25/25/3 32/32/8 33/33/8 27/27/3 
f 27/27/3 33/33/8 34/34/8 28/28/3 
f 28/28/3 34/34/8 35/35/8 29/29/3 
f 29/29/3 35/35/8 36/36/9 30/30/5 
s 4
f 37/12/10 38/10/11 39/9/12 40/11/13 
f 38/10/11 41/8/11 42/7/12 39/9/12 
f 41/8/11 43/6/11 44/5/12 42/7/12 
f 43/6/11 45/4/11 46/3/12 44/5/12 
f 45/4/11 47/1/14 48/2/15 46/3/12 
f 40/11/13 39/9/12 49/17/12 50/18/13 
f 39/9/12 42/7/12 51/16/12 49/17/12 
f 42/7/12 44/5/12 52/15/12 51/16/12 
f 44/5/12 46/3/12 53/14/12 52/15/12 
f 46/3/12 48/2/15 54/13/15 53/14/12 
f 51/16/12 52/15/12 55/19/12 56/20/12 
f 52/15/12 53/14/12 57/26/12 55/19/12 
f 53/14/12 54/13/15 58/23/15 57/26/12 
f 59/22/13 60/21/12 61/29/12 62/30/13 
f 60/21/12 56/20/12 63/28/12 61/29/12 
f 56/20/12 55/19/12 64/27/12 63/28/12 
f 55/19/12 57/26/12 65/25/12 64/27/12 
f 57/26/12 58/23/15 66/24/15 65/25/12 
f 62/30/13 61/29/12 67/35/16 68/36/17 
f 61/29/12 63/28/12 69/34/16 67/35/16 
f 63/28/12 64/27/12 70/33/16 69/34/16 
f 64/27/12 65/25/12 71/32/16 70/33/16 
f 65/25/12 66/24/15 72/31/18 71/32/16 
s 8
f 1/12/1 4/10/4 38/35/11 37/36/10 
f 4/10/4 6/8/4 41/34/11 38/35/11 
f 6/8/4 8/6/4 43/33/11 41/34/11 
f 8/6/4 10/4/4 45/32/11 43/33/11 
f 10/4/4 12/1/6 47/31/14 45/32/11 
s 16
f 12/12/6 11/10/5 48/35/15 47/36/14 
f 11/10/5 18/8/5 54/34/15 48/35/15 
f 18/8/5 22/6/5 58/33/15 54/34/15 
f 22/6/5 30/4/5 66/32/15 58/33/15 
f 30/4/5 36/1/9 72/31/18 66/32/15 
s 32
f 36/12/9 35/10/8 71/35/16 72/36/18 
f 35/10/8 34/8/8 70/34/16 71/35/16 
f 34/8/8 33/6/8 69/33/16 70/34/16 
f 33/6/8 32/4/8 67/32/16 69/33/16 
f 32/4/8 31/1/7 68/31/17 67/32/16 
s 64
f 31/12/7 24/10/2 62/35/13 68/36/17 
f 24/10/2 23/8/2 59/34/13 62/35/13 
f 13/6/2 2/4/2 40/32/13 50/33/13 
f 2/4/2 1/1/1 37/31/10 40/32/13 
# 65 polygons

