# 3ds Max Wavefront OBJ Exporter v0.97b - (c)2007 guruware
# File Created: 04.06.2018 12:34:07

mtllib xraytable.mtl

#
# object Box001
#

v  -34.97713 0.00000 25.04028
v  -34.97713 0.00000 -25.04028
v  34.97713 0.00000 -25.04028
v  34.97713 0.00000 25.04028
v  -34.97713 10.00000 25.04028
v  34.97713 10.00000 25.04028
v  34.97713 10.00000 -25.04028
v  -34.97713 10.00000 -25.04028
v  -34.97713 0.28880 25.40717
v  34.97713 0.28880 25.40717
v  34.97713 9.71120 25.40717
v  -34.97713 9.71120 25.40717
v  35.31712 0.28880 25.04028
v  35.31712 0.28880 -25.04028
v  35.31712 9.71120 -25.04028
v  35.31712 9.71120 25.04028
v  34.97713 0.28880 -25.40717
v  -34.97713 0.28880 -25.40717
v  -34.97713 9.71120 -25.40717
v  34.97713 9.71120 -25.40717
v  -35.31712 0.28880 -25.04028
v  -35.31712 0.28880 25.04028
v  -35.31712 9.71120 25.04028
v  -35.31712 9.71120 -25.04028
# 24 vertices

vn -0.34159 -0.87558 0.34159
vn -0.34159 -0.87558 -0.34159
vn 0.34159 -0.87558 -0.34159
vn 0.34159 -0.87558 0.34159
vn -0.34159 0.87558 0.34159
vn 0.34159 0.87558 0.34159
vn 0.34159 0.87558 -0.34159
vn -0.34159 0.87558 -0.34159
vn -0.34156 -0.34161 0.87558
vn 0.34156 -0.34161 0.87558
vn 0.34156 0.34161 0.87558
vn -0.34156 0.34161 0.87558
vn 0.87558 -0.34161 0.34156
vn 0.87558 -0.34161 -0.34156
vn 0.87558 0.34161 -0.34156
vn 0.87558 0.34161 0.34156
vn 0.34156 -0.34161 -0.87558
vn -0.34156 -0.34161 -0.87558
vn -0.34156 0.34161 -0.87558
vn 0.34156 0.34161 -0.87558
vn -0.87558 -0.34161 -0.34156
vn -0.87558 -0.34161 0.34156
vn -0.87558 0.34161 0.34156
vn -0.87558 0.34161 -0.34156
# 24 vertex normals

vt 0.99519 0.00722 0.00000
vt 0.99519 0.99278 0.00000
vt 0.00481 0.99278 0.00000
vt 0.00481 0.00722 0.00000
vt 0.00481 0.02888 0.00000
vt 0.99519 0.02888 0.00000
vt 0.99519 0.97112 0.00000
vt 0.00481 0.97112 0.00000
vt 0.00722 0.02888 0.00000
vt 0.99278 0.02888 0.00000
vt 0.99278 0.97112 0.00000
vt 0.00722 0.97112 0.00000
vt -0.00266 0.04666 0.00000
vt -0.01560 0.00277 0.00000
vt -0.04961 0.03852 0.00000
vt -0.04961 0.01924 0.00000
vt -0.00025 0.04666 0.00000
vt -0.01500 0.00277 0.00000
vt -0.04961 0.98076 0.00000
vt -0.04961 0.96148 0.00000
vt -0.01560 0.99723 0.00000
vt -0.00266 0.95334 0.00000
vt -0.01500 0.99723 0.00000
vt -0.00025 0.95334 0.00000
vt 0.99278 -0.00022 0.00000
vt 0.00722 -0.00022 0.00000
vt 0.99519 0.00226 0.00000
vt 0.00481 0.00226 0.00000
vt 0.00481 0.99774 0.00000
vt 0.99519 0.99774 0.00000
vt 0.00722 1.00022 0.00000
vt 0.99278 1.00022 0.00000
vt 0.04806 0.02888 0.00000
vt 0.04806 0.97112 0.00000
vt 0.95194 0.97112 0.00000
vt 0.95194 0.02888 0.00000
vt 0.04566 0.02888 0.00000
vt 0.04566 0.97112 0.00000
# 38 texture coords

o Box001
g Box001
usemtl wire_029029029
s 1
f 1/1/1 2/2/2 3/3/3 4/4/4 
f 5/4/5 6/1/6 7/2/7 8/3/8 
f 9/5/9 10/6/10 11/7/11 12/8/12 
f 13/9/13 14/10/14 15/11/15 16/12/16 
f 17/5/17 18/6/18 19/7/19 20/8/20 
f 21/9/21 22/10/22 23/11/23 24/12/24 
f 9/5/9 22/13/22 1/14/1 
f 4/4/4 13/15/13 10/16/10 
f 21/9/21 18/17/18 2/18/2 
f 3/3/3 17/19/17 14/20/14 
f 12/8/12 5/21/5 23/22/23 
f 16/12/16 6/23/6 11/24/11 
f 24/12/24 8/23/8 19/24/19 
f 20/8/20 7/21/7 15/22/15 
f 1/25/1 22/10/22 21/9/21 2/26/2 
f 2/27/2 18/6/18 17/5/17 3/28/3 
f 3/25/3 14/10/14 13/9/13 4/26/4 
f 4/27/4 10/6/10 9/5/9 1/28/1 
f 5/29/5 12/8/12 11/7/11 6/30/6 
f 6/31/6 16/12/16 15/11/15 7/32/7 
f 7/29/7 20/8/20 19/7/19 8/30/8 
f 8/31/8 24/12/24 23/11/23 5/32/5 
f 10/33/10 13/9/13 16/12/16 11/34/11 
f 12/35/12 23/11/23 22/10/22 9/36/9 
f 14/37/14 17/5/17 20/8/20 15/38/15 
f 18/33/18 21/9/21 24/12/24 19/34/19 
# 18 polygons - 8 triangles

#
# object Box002
#

v  -39.00000 10.00000 29.00000
v  -39.00000 10.00000 -29.00000
v  39.00000 10.00000 -29.00000
v  39.00000 10.00000 29.00000
v  -39.00000 30.00000 29.00000
v  39.00000 30.00000 29.00000
v  39.00000 30.00000 -29.00000
v  -39.00000 30.00000 -29.00000
v  -39.00000 11.00000 30.00000
v  39.00000 11.00000 30.00000
v  39.00000 29.00000 30.00000
v  -39.00000 29.00000 30.00000
v  40.00000 11.00000 29.00000
v  40.00000 11.00000 -29.00000
v  40.00000 29.00000 -29.00000
v  40.00000 29.00000 29.00000
v  39.00000 11.00000 -30.00000
v  -39.00000 11.00000 -30.00000
v  -39.00000 29.00000 -30.00000
v  39.00000 29.00000 -30.00000
v  -40.00000 11.00000 -29.00000
v  -40.00000 11.00000 29.00000
v  -40.00000 29.00000 29.00000
v  -40.00000 29.00000 -29.00000
# 24 vertices

vn -0.34159 -0.87558 0.34159
vn -0.34159 -0.87558 -0.34159
vn 0.34159 -0.87558 -0.34159
vn 0.34159 -0.87558 0.34159
vn -0.34158 0.87559 0.34158
vn 0.34158 0.87559 0.34158
vn 0.34158 0.87559 -0.34158
vn -0.34158 0.87559 -0.34158
vn -0.34156 -0.34161 0.87558
vn 0.34156 -0.34161 0.87558
vn 0.34158 0.34158 0.87559
vn -0.34158 0.34158 0.87559
vn 0.87558 -0.34161 0.34156
vn 0.87558 -0.34161 -0.34156
vn 0.87559 0.34158 -0.34158
vn 0.87559 0.34158 0.34158
vn 0.34156 -0.34161 -0.87558
vn -0.34156 -0.34161 -0.87558
vn -0.34158 0.34158 -0.87559
vn 0.34158 0.34158 -0.87559
vn -0.87558 -0.34161 -0.34156
vn -0.87558 -0.34161 0.34156
vn -0.87559 0.34158 0.34158
vn -0.87559 0.34158 -0.34158
# 24 vertex normals

vt 0.98750 0.01667 0.00000
vt 0.98750 0.98333 0.00000
vt 0.01250 0.98333 0.00000
vt 0.01250 0.01667 0.00000
vt 0.01250 0.05000 0.00000
vt 0.98750 0.05000 0.00000
vt 0.98750 0.95000 0.00000
vt 0.01250 0.95000 0.00000
vt 0.01667 0.05000 0.00000
vt 0.98333 0.05000 0.00000
vt 0.98333 0.95000 0.00000
vt 0.01667 0.95000 0.00000
vt -0.00616 0.08232 0.00000
vt -0.02693 0.00589 0.00000
vt -0.05946 0.06866 0.00000
vt -0.05946 0.03134 0.00000
vt -0.00199 0.08232 0.00000
vt -0.02554 0.00589 0.00000
vt -0.05946 0.96866 0.00000
vt -0.05946 0.93134 0.00000
vt -0.02693 0.99411 0.00000
vt -0.00616 0.91768 0.00000
vt -0.02554 0.99411 0.00000
vt -0.00199 0.91768 0.00000
vt 0.98333 -0.00090 0.00000
vt 0.01667 -0.00090 0.00000
vt 0.98750 0.00349 0.00000
vt 0.01250 0.00349 0.00000
vt 0.01250 0.99651 0.00000
vt 0.98750 0.99651 0.00000
vt 0.01667 1.00090 0.00000
vt 0.98333 1.00090 0.00000
vt 0.08738 0.05000 0.00000
vt 0.08738 0.95000 0.00000
vt 0.91262 0.95000 0.00000
vt 0.91262 0.05000 0.00000
vt 0.08321 0.05000 0.00000
vt 0.08321 0.95000 0.00000
# 38 texture coords

o Box002
g Box002
usemtl wire_255255255
s 1
f 25/39/25 26/40/26 27/41/27 28/42/28 
f 29/42/29 30/39/30 31/40/31 32/41/32 
f 33/43/33 34/44/34 35/45/35 36/46/36 
f 37/47/37 38/48/38 39/49/39 40/50/40 
f 41/43/41 42/44/42 43/45/43 44/46/44 
f 45/47/45 46/48/46 47/49/47 48/50/48 
f 33/43/33 46/51/46 25/52/25 
f 28/42/28 37/53/37 34/54/34 
f 45/47/45 42/55/42 26/56/26 
f 27/41/27 41/57/41 38/58/38 
f 36/46/36 29/59/29 47/60/47 
f 40/50/40 30/61/30 35/62/35 
f 48/50/48 32/61/32 43/62/43 
f 44/46/44 31/59/31 39/60/39 
f 25/63/25 46/48/46 45/47/45 26/64/26 
f 26/65/26 42/44/42 41/43/41 27/66/27 
f 27/63/27 38/48/38 37/47/37 28/64/28 
f 28/65/28 34/44/34 33/43/33 25/66/25 
f 29/67/29 36/46/36 35/45/35 30/68/30 
f 30/69/30 40/50/40 39/49/39 31/70/31 
f 31/67/31 44/46/44 43/45/43 32/68/32 
f 32/69/32 48/50/48 47/49/47 29/70/29 
f 34/71/34 37/47/37 40/50/40 35/72/35 
f 36/73/36 47/49/47 46/48/46 33/74/33 
f 38/75/38 41/43/41 44/46/44 39/76/39 
f 42/71/42 45/47/45 48/50/48 43/72/43 
# 18 polygons - 8 triangles

#
# object Box004
#

v  -67.22226 34.33870 23.48759
v  -67.22226 34.33870 -23.48758
v  67.22226 34.33870 -23.48758
v  67.22226 34.33870 23.48759
v  -67.22226 38.64281 23.48759
v  67.22226 38.64281 23.48759
v  67.22226 38.64281 -23.48758
v  -67.22226 38.64281 -23.48758
v  -67.22226 35.53427 27.27585
v  67.22226 35.53427 27.27585
v  67.22226 37.44724 27.27585
v  -67.22226 37.44724 27.27585
v  70.00000 35.53427 23.48759
v  70.00000 35.53427 -23.48758
v  70.00000 37.44724 -23.48758
v  70.00000 37.44724 23.48759
v  67.22226 35.53427 -27.27584
v  -67.22226 35.53427 -27.27584
v  -67.22226 37.44724 -27.27584
v  67.22226 37.44724 -27.27584
v  -70.00000 35.53427 -23.48758
v  -70.00000 35.53427 23.48759
v  -70.00000 37.44724 23.48759
v  -70.00000 37.44724 -23.48758
# 24 vertices

vn -0.34159 -0.87558 0.34159
vn -0.34159 -0.87558 -0.34159
vn 0.34159 -0.87558 -0.34159
vn 0.34159 -0.87558 0.34159
vn -0.34158 0.87559 0.34158
vn 0.34158 0.87559 0.34158
vn 0.34158 0.87559 -0.34158
vn -0.34158 0.87559 -0.34158
vn -0.34156 -0.34161 0.87558
vn 0.34156 -0.34161 0.87558
vn 0.34158 0.34158 0.87559
vn -0.34158 0.34158 0.87559
vn 0.87558 -0.34161 0.34156
vn 0.87558 -0.34161 -0.34156
vn 0.87559 0.34158 -0.34158
vn 0.87559 0.34158 0.34158
vn 0.34156 -0.34161 -0.87558
vn -0.34156 -0.34161 -0.87558
vn -0.34158 0.34158 -0.87559
vn 0.34158 0.34158 -0.87559
vn -0.87558 -0.34161 -0.34156
vn -0.87558 -0.34161 0.34156
vn -0.87559 0.34158 0.34158
vn -0.87559 0.34158 -0.34158
# 24 vertex normals

vt 0.98016 0.06944 0.00000
vt 0.98016 0.93056 0.00000
vt 0.01984 0.93056 0.00000
vt 0.01984 0.06944 0.00000
vt 0.01984 0.27777 0.00000
vt 0.98016 0.27777 0.00000
vt 0.98016 0.72223 0.00000
vt 0.01984 0.72223 0.00000
vt 0.06944 0.27777 0.00000
vt 0.93056 0.27777 0.00000
vt 0.93056 0.72223 0.00000
vt 0.06944 0.72223 0.00000
vt -0.04717 0.43730 0.00000
vt -0.14582 0.02956 0.00000
vt -0.53849 0.36429 0.00000
vt -0.53849 0.19126 0.00000
vt 0.00243 0.43730 0.00000
vt -0.13342 0.02956 0.00000
vt -0.53849 0.80874 0.00000
vt -0.53849 0.63571 0.00000
vt -0.14582 0.97044 0.00000
vt -0.04717 0.56270 0.00000
vt -0.13342 0.97044 0.00000
vt 0.00243 0.56270 0.00000
vt 0.93056 -0.00214 0.00000
vt 0.06944 -0.00214 0.00000
vt 0.98016 0.04899 0.00000
vt 0.01984 0.04899 0.00000
vt 0.01984 0.95101 0.00000
vt 0.98016 0.95101 0.00000
vt 0.06944 1.00214 0.00000
vt 0.93056 1.00214 0.00000
vt 0.46228 0.27777 0.00000
vt 0.46228 0.72223 0.00000
vt 0.53772 0.72223 0.00000
vt 0.53772 0.27777 0.00000
vt 0.41267 0.27777 0.00000
vt 0.41267 0.72223 0.00000
# 38 texture coords

o Box004
g Box004
usemtl wire_067067067
s 1
f 49/77/49 50/78/50 51/79/51 52/80/52 
f 53/80/53 54/77/54 55/78/55 56/79/56 
f 57/81/57 58/82/58 59/83/59 60/84/60 
f 61/85/61 62/86/62 63/87/63 64/88/64 
f 65/81/65 66/82/66 67/83/67 68/84/68 
f 69/85/69 70/86/70 71/87/71 72/88/72 
f 57/81/57 70/89/70 49/90/49 
f 52/80/52 61/91/61 58/92/58 
f 69/85/69 66/93/66 50/94/50 
f 51/79/51 65/95/65 62/96/62 
f 60/84/60 53/97/53 71/98/71 
f 64/88/64 54/99/54 59/100/59 
f 72/88/72 56/99/56 67/100/67 
f 68/84/68 55/97/55 63/98/63 
f 49/101/49 70/86/70 69/85/69 50/102/50 
f 50/103/50 66/82/66 65/81/65 51/104/51 
f 51/101/51 62/86/62 61/85/61 52/102/52 
f 52/103/52 58/82/58 57/81/57 49/104/49 
f 53/105/53 60/84/60 59/83/59 54/106/54 
f 54/107/54 64/88/64 63/87/63 55/108/55 
f 55/105/55 68/84/68 67/83/67 56/106/56 
f 56/107/56 72/88/72 71/87/71 53/108/53 
f 58/109/58 61/85/61 64/88/64 59/110/59 
f 60/111/60 71/87/71 70/86/70 57/112/57 
f 62/113/62 65/81/65 68/84/68 63/114/63 
f 66/109/66 69/85/69 72/88/72 67/110/67 
# 18 polygons - 8 triangles

#
# object Box005
#

v  16.53398 30.00000 27.27585
v  16.53398 30.00000 13.63792
v  23.55471 30.00000 13.63792
v  23.55471 30.00000 27.27585
v  30.57545 30.00000 13.63792
v  30.57545 30.00000 27.27585
v  37.59618 30.00000 13.63792
v  37.59618 30.00000 27.27585
v  16.53398 30.00000 0.00000
v  23.55471 30.00000 0.00000
v  30.57545 30.00000 0.00000
v  37.59618 30.00000 0.00000
v  16.53398 30.00000 -13.63792
v  23.55471 30.00000 -13.63792
v  30.57545 30.00000 -13.63792
v  37.59618 30.00000 -13.63792
v  16.53398 30.00000 -27.27584
v  23.55471 30.00000 -27.27584
v  30.57545 30.00000 -27.27584
v  37.59618 30.00000 -27.27584
v  16.53398 34.30411 27.27585
v  23.55471 34.30411 27.27585
v  23.55471 34.30411 13.63792
v  16.53398 34.30411 13.63792
v  30.57545 34.30411 27.27585
v  30.57545 34.30411 13.63792
v  37.59618 34.30411 27.27585
v  37.59618 34.30411 13.63792
v  23.55471 34.30411 0.00000
v  16.53398 34.30411 0.00000
v  30.57545 34.30411 0.00000
v  37.59618 34.30411 0.00000
v  23.55471 34.30411 -13.63792
v  16.53398 34.30411 -13.63792
v  30.57545 34.30411 -13.63792
v  37.59618 34.30411 -13.63792
v  23.55471 34.30411 -27.27584
v  16.53398 34.30411 -27.27584
v  30.57545 34.30411 -27.27584
v  37.59618 34.30411 -27.27584
# 40 vertices

vn -0.57735 -0.57735 0.57735
vn -0.70711 -0.70711 -0.00000
vn 0.00000 -1.00000 -0.00000
vn 0.00000 -0.70711 0.70711
vn 0.70711 -0.70711 -0.00000
vn 0.57735 -0.57735 0.57735
vn -0.57735 -0.57735 -0.57735
vn 0.00000 -0.70711 -0.70711
vn 0.57735 -0.57735 -0.57735
vn -0.57735 0.57735 0.57735
vn 0.00000 0.70711 0.70711
vn 0.00000 1.00000 -0.00000
vn -0.70711 0.70711 -0.00000
vn 0.57735 0.57735 0.57735
vn 0.70711 0.70711 -0.00000
vn 0.00000 0.70711 -0.70711
vn -0.57735 0.57735 -0.57735
vn 0.57735 0.57735 -0.57735
# 18 vertex normals

vt 1.00000 0.00000 0.00000
vt 1.00000 0.25000 0.00000
vt 0.66667 0.25000 0.00000
vt 0.66667 0.00000 0.00000
vt 0.33333 0.25000 0.00000
vt 0.33333 0.00000 0.00000
vt 0.00000 0.25000 0.00000
vt 0.00000 0.00000 0.00000
vt 1.00000 0.50000 0.00000
vt 0.66667 0.50000 0.00000
vt 0.33333 0.50000 0.00000
vt 0.00000 0.50000 0.00000
vt 1.00000 0.75000 0.00000
vt 0.66667 0.75000 0.00000
vt 0.33333 0.75000 0.00000
vt 0.00000 0.75000 0.00000
vt 1.00000 1.00000 0.00000
vt 0.66667 1.00000 0.00000
vt 0.33333 1.00000 0.00000
vt 0.00000 1.00000 0.00000
vt 0.25000 0.00000 0.00000
vt 0.25000 1.00000 0.00000
vt 0.50000 0.00000 0.00000
vt 0.50000 1.00000 0.00000
vt 0.75000 0.00000 0.00000
vt 0.75000 1.00000 0.00000
# 26 texture coords

o Box005
g Box005
usemtl wire_000000000
s 2
f 73/115/73 74/116/74 75/117/75 76/118/76 
f 76/118/76 75/117/75 77/119/75 78/120/76 
f 78/120/76 77/119/75 79/121/77 80/122/78 
f 74/116/74 81/123/74 82/124/75 75/117/75 
f 75/117/75 82/124/75 83/125/75 77/119/75 
f 77/119/75 83/125/75 84/126/77 79/121/77 
f 81/123/74 85/127/74 86/128/75 82/124/75 
f 82/124/75 86/128/75 87/129/75 83/125/75 
f 83/125/75 87/129/75 88/130/77 84/126/77 
f 85/127/74 89/131/79 90/132/80 86/128/75 
f 86/128/75 90/132/80 91/133/80 87/129/75 
f 87/129/75 91/133/80 92/134/81 88/130/77 
s 4
f 93/122/82 94/120/83 95/119/84 96/121/85 
f 94/120/83 97/118/83 98/117/84 95/119/84 
f 97/118/83 99/115/86 100/116/87 98/117/84 
f 96/121/85 95/119/84 101/125/84 102/126/85 
f 95/119/84 98/117/84 103/124/84 101/125/84 
f 98/117/84 100/116/87 104/123/87 103/124/84 
f 102/126/85 101/125/84 105/129/84 106/130/85 
f 101/125/84 103/124/84 107/128/84 105/129/84 
f 103/124/84 104/123/87 108/127/87 107/128/84 
f 106/130/85 105/129/84 109/133/88 110/134/89 
f 105/129/84 107/128/84 111/132/88 109/133/88 
f 107/128/84 108/127/87 112/131/90 111/132/88 
s 8
f 73/122/73 76/120/76 94/133/83 93/134/82 
f 76/120/76 78/118/76 97/132/83 94/133/83 
f 78/118/76 80/115/78 99/131/86 97/132/83 
s 16
f 80/122/78 79/135/77 100/136/87 99/134/86 
f 79/135/77 84/137/77 104/138/87 100/136/87 
f 84/137/77 88/139/77 108/140/87 104/138/87 
f 88/139/77 92/115/81 112/131/90 108/140/87 
s 32
f 92/122/81 91/120/80 111/133/88 112/134/90 
f 91/120/80 90/118/80 109/132/88 111/133/88 
f 90/118/80 89/115/79 110/131/89 109/132/88 
s 64
f 89/122/79 85/135/74 106/136/85 110/134/89 
f 85/135/74 81/137/74 102/138/85 106/136/85 
f 81/137/74 74/139/74 96/140/85 102/138/85 
f 74/139/74 73/115/73 93/131/82 96/140/85 
# 38 polygons

#
# object Box006
#

v  -36.28733 30.00000 27.27585
v  -36.28733 30.00000 -27.27584
v  -15.22513 30.00000 -27.27584
v  -15.22513 30.00000 27.27585
v  -36.28733 34.30411 27.27585
v  -15.22513 34.30411 27.27585
v  -15.22513 34.30411 -27.27584
v  -36.28733 34.30411 -27.27584
# 8 vertices

vn -0.57735 -0.57735 0.57735
vn -0.57735 -0.57735 -0.57735
vn 0.57735 -0.57735 -0.57735
vn 0.57735 -0.57735 0.57735
vn -0.57735 0.57735 0.57735
vn 0.57735 0.57735 0.57735
vn 0.57735 0.57735 -0.57735
vn -0.57735 0.57735 -0.57735
# 8 vertex normals

vt 1.00000 0.00000 0.00000
vt 1.00000 1.00000 0.00000
vt 0.00000 1.00000 0.00000
vt 0.00000 0.00000 0.00000
# 4 texture coords

o Box006
g Box006
usemtl wire_000000000
s 2
f 113/141/91 114/142/92 115/143/93 116/144/94 
s 4
f 117/144/95 118/141/96 119/142/97 120/143/98 
s 8
f 113/144/91 116/141/94 118/142/96 117/143/95 
s 16
f 116/144/94 115/141/93 119/142/97 118/143/96 
s 32
f 115/144/93 114/141/92 120/142/98 119/143/97 
s 64
f 114/144/92 113/141/91 117/142/95 120/143/98 
# 6 polygons

#
# object Box007
#

v  31.41870 31.23724 26.85527
v  31.41870 32.89188 26.85527
v  32.87056 32.89188 26.85527
v  32.87056 31.23724 26.85527
v  31.41870 31.23724 27.73397
v  32.87056 31.23724 27.73397
v  32.87056 32.89188 27.73397
v  31.41870 32.89188 27.73397
v  31.41870 30.88169 27.21082
v  32.87056 30.88169 27.21082
v  32.87056 30.88169 27.37843
v  31.41870 30.88169 27.37843
v  33.22610 31.23724 27.21082
v  33.22610 32.89188 27.21082
v  33.22610 32.89188 27.37843
v  33.22610 31.23724 27.37843
v  32.87056 33.24743 27.21082
v  31.41870 33.24743 27.21082
v  31.41870 33.24743 27.37843
v  32.87056 33.24743 27.37843
v  31.06315 32.89188 27.21082
v  31.06315 31.23724 27.21082
v  31.06315 31.23724 27.37843
v  31.06315 32.89188 27.37843
# 24 vertices

vn -0.34159 -0.34159 -0.87558
vn -0.34159 0.34159 -0.87558
vn 0.34159 0.34159 -0.87558
vn 0.34159 -0.34159 -0.87558
vn -0.34158 -0.34158 0.87559
vn 0.34158 -0.34158 0.87559
vn 0.34158 0.34158 0.87559
vn -0.34158 0.34158 0.87559
vn -0.34156 -0.87558 -0.34161
vn 0.34156 -0.87558 -0.34161
vn 0.34158 -0.87559 0.34158
vn -0.34158 -0.87559 0.34158
vn 0.87558 -0.34156 -0.34161
vn 0.87558 0.34156 -0.34161
vn 0.87559 0.34158 0.34158
vn 0.87559 -0.34158 0.34158
vn 0.34156 0.87558 -0.34161
vn -0.34156 0.87558 -0.34161
vn -0.34158 0.87559 0.34158
vn 0.34158 0.87559 0.34158
vn -0.87558 0.34156 -0.34161
vn -0.87558 -0.34156 -0.34161
vn -0.87559 -0.34158 0.34158
vn -0.87559 0.34158 0.34158
# 24 vertex normals

vt 0.83562 0.15029 0.00000
vt 0.83562 0.84971 0.00000
vt 0.16438 0.84971 0.00000
vt 0.16438 0.15029 0.00000
vt 0.17777 0.17777 0.00000
vt 0.82223 0.17777 0.00000
vt 0.82223 0.82223 0.00000
vt 0.17777 0.82223 0.00000
vt -0.02024 0.45303 0.00000
vt -0.20116 -0.03960 0.00000
vt -0.30239 0.53948 0.00000
vt -0.30239 0.20040 0.00000
vt -0.30239 0.79960 0.00000
vt -0.30239 0.46052 0.00000
vt -0.20116 1.03960 0.00000
vt -0.02024 0.54697 0.00000
vt 0.85660 -0.05717 0.00000
vt 0.14340 -0.05717 0.00000
vt 0.84092 -0.08569 0.00000
vt 0.15908 -0.08569 0.00000
vt 0.15908 1.08569 0.00000
vt 0.84092 1.08569 0.00000
vt 0.14340 1.05717 0.00000
vt 0.85660 1.05717 0.00000
vt -0.34535 0.17777 0.00000
vt -0.34535 0.82223 0.00000
vt 1.34535 0.82223 0.00000
vt 1.34535 0.17777 0.00000
# 28 texture coords

o Box007
g Box007
usemtl wire_135006006
s 1
f 121/145/99 122/146/100 123/147/101 124/148/102 
f 125/148/103 126/145/104 127/146/105 128/147/106 
f 129/149/107 130/150/108 131/151/109 132/152/110 
f 133/149/111 134/150/112 135/151/113 136/152/114 
f 137/149/115 138/150/116 139/151/117 140/152/118 
f 141/149/119 142/150/120 143/151/121 144/152/122 
f 129/149/107 142/153/120 121/154/99 
f 124/148/102 133/155/111 130/156/108 
f 141/149/119 138/153/116 122/154/100 
f 123/147/101 137/157/115 134/158/112 
f 132/152/110 125/159/103 143/160/121 
f 136/152/114 126/159/104 131/160/109 
f 144/152/122 128/159/106 139/160/117 
f 140/152/118 127/159/105 135/160/113 
f 121/161/99 142/150/120 141/149/119 122/162/100 
f 122/163/100 138/150/116 137/149/115 123/164/101 
f 123/161/101 134/150/112 133/149/111 124/162/102 
f 124/163/102 130/150/108 129/149/107 121/164/99 
f 125/165/103 132/152/110 131/151/109 126/166/104 
f 126/167/104 136/152/114 135/151/113 127/168/105 
f 127/165/105 140/152/118 139/151/117 128/166/106 
f 128/167/106 144/152/122 143/151/121 125/168/103 
f 130/169/108 133/149/111 136/152/114 131/170/109 
f 132/171/110 143/151/121 142/150/120 129/172/107 
f 134/169/112 137/149/115 140/152/118 135/170/113 
f 138/169/116 141/149/119 144/152/122 139/170/117 
# 18 polygons - 8 triangles

#
# object Box008
#

v  -12.08696 30.10266 27.41387
v  -12.08696 30.10266 -1.36369
v  11.91304 30.10266 -1.36369
v  11.91304 30.10266 27.41387
v  -10.08396 31.17998 25.81272
v  9.91004 31.17998 25.81272
v  9.91004 31.17998 0.23746
v  -10.08396 31.17998 0.23746
v  11.91304 33.76639 27.41387
v  -12.08696 33.76639 27.41387
v  11.91304 33.76639 -1.36369
v  -12.08696 33.76639 -1.36369
v  9.91004 33.76639 25.81272
v  -10.08396 33.76639 25.81272
v  9.91004 33.76639 0.23746
v  -10.08396 33.76639 0.23746
# 16 vertices

vn -0.57735 -0.57735 0.57735
vn -0.57735 -0.57735 -0.57735
vn 0.57735 -0.57735 -0.57735
vn 0.57735 -0.57735 0.57735
vn 0.57735 0.57735 -0.57735
vn -0.57735 0.57735 -0.57735
vn -0.57735 0.57735 0.57735
vn 0.57735 0.57735 0.57735
vn -0.30151 0.90453 -0.30151
vn 0.30151 0.90453 -0.30151
vn -0.30151 0.90453 0.30151
vn 0.30151 0.90453 0.30151
# 12 vertex normals

vt 1.00000 0.00000 0.00000
vt 1.00000 1.00000 0.00000
vt 0.00000 1.00000 0.00000
vt 0.00000 0.00000 0.00000
# 4 texture coords

o Box008
g Box008
usemtl wire_255255255
s 2
f 145/173/123 146/174/124 147/175/125 148/176/126 
s 4
f 149/176/127 150/173/128 151/174/129 152/175/130 
s 8
f 145/176/123 148/173/126 153/174/130 154/175/129 
s 16
f 148/176/126 147/173/125 155/174/127 153/175/130 
s 32
f 147/176/125 146/173/124 156/174/128 155/175/127 
s 64
f 146/176/124 145/173/123 154/174/129 156/175/128 
s off
f 154/176/129 153/173/130 157/173/131 158/176/132 
f 153/173/130 155/174/127 159/174/133 157/173/131 
f 155/174/127 156/175/128 160/175/134 159/174/133 
f 156/175/128 154/176/129 158/176/132 160/175/134 
f 158/176/132 157/173/131 150/173/128 149/176/127 
f 157/173/131 159/174/133 151/174/129 150/173/128 
f 159/174/133 160/175/134 152/175/130 151/174/129 
f 160/175/134 158/176/132 149/176/127 152/175/130 
# 14 polygons

#
# object Loft001
#

v  -4.58116 32.12167 27.36025
v  -4.59260 32.20691 27.36120
v  -4.49767 32.20691 27.92226
v  -4.48653 32.12167 27.91934
v  -4.62485 32.28353 27.36387
v  -4.52912 32.28353 27.93051
v  -4.67487 32.34847 27.36802
v  -4.57789 32.34847 27.94329
v  -4.73959 32.39866 27.37337
v  -4.64099 32.39866 27.95983
v  -4.81595 32.43102 27.37970
v  -4.71544 32.43102 27.97934
v  -4.90089 32.44249 27.38673
v  -4.79826 32.44249 28.00104
v  -4.98583 32.43102 27.39377
v  -4.88107 32.43102 28.02275
v  -5.06219 32.39866 27.40009
v  -4.95552 32.39866 28.04226
v  -5.12691 32.34847 27.40545
v  -5.01862 32.34847 28.05880
v  -5.17693 32.28353 27.40959
v  -5.06739 32.28353 28.07158
v  -5.20918 32.20691 27.41226
v  -5.09884 32.20691 28.07982
v  -5.22062 32.12167 27.41321
v  -5.10999 32.12167 28.08274
v  -5.20918 32.03644 27.41226
v  -5.09884 32.03644 28.07982
v  -5.17693 31.95982 27.40959
v  -5.06739 31.95982 28.07158
v  -5.12691 31.89488 27.40545
v  -5.01862 31.89488 28.05880
v  -5.06219 31.84469 27.40009
v  -4.95552 31.84469 28.04226
v  -4.98583 31.81232 27.39377
v  -4.88107 31.81232 28.02275
v  -4.90089 31.80085 27.38673
v  -4.79826 31.80085 28.00104
v  -4.81595 31.81232 27.37970
v  -4.71544 31.81232 27.97934
v  -4.73959 31.84469 27.37337
v  -4.64099 31.84469 27.95983
v  -4.67487 31.89488 27.36802
v  -4.57789 31.89488 27.94329
v  -4.62485 31.95982 27.36387
v  -4.52912 31.95982 27.93051
v  -4.59260 32.03644 27.36120
v  -4.49767 32.03644 27.92226
v  -4.31927 32.20691 28.40384
v  -4.30892 32.12167 28.39873
v  -4.34845 32.28353 28.41825
v  -4.39371 32.34847 28.44060
v  -4.45227 32.39866 28.46952
v  -4.52136 32.43102 28.50364
v  -4.59821 32.44249 28.54160
v  -4.67507 32.43102 28.57955
v  -4.74416 32.39866 28.61367
v  -4.80272 32.34847 28.64259
v  -4.84798 32.28353 28.66494
v  -4.87716 32.20691 28.67936
v  -4.88751 32.12167 28.68446
v  -4.87716 32.03644 28.67936
v  -4.84798 31.95982 28.66494
v  -4.80272 31.89488 28.64259
v  -4.74416 31.84469 28.61367
v  -4.67507 31.81232 28.57955
v  -4.59821 31.80085 28.54160
v  -4.52136 31.81232 28.50364
v  -4.45227 31.84469 28.46952
v  -4.39371 31.89488 28.44060
v  -4.34845 31.95982 28.41825
v  -4.31927 32.03644 28.40384
v  -4.05834 32.20691 28.81320
v  -4.04935 32.12167 28.80597
v  -4.08370 32.28353 28.83363
v  -4.12303 32.34847 28.86530
v  -4.17392 32.39866 28.90627
v  -4.23397 32.43102 28.95462
v  -4.30076 32.44249 29.00840
v  -4.36755 32.43102 29.06217
v  -4.42760 32.39866 29.11052
v  -4.47849 32.34847 29.15150
v  -4.51782 32.28353 29.18316
v  -4.54319 32.20691 29.20359
v  -4.55217 32.12167 29.21082
v  -4.54319 32.03644 29.20359
v  -4.51782 31.95982 29.18316
v  -4.47849 31.89488 29.15150
v  -4.42760 31.84469 29.11052
v  -4.36755 31.81232 29.06217
v  -4.30076 31.80085 29.00840
v  -4.23397 31.81232 28.95462
v  -4.17392 31.84469 28.90627
v  -4.12303 31.89488 28.86530
v  -4.08370 31.95982 28.83363
v  -4.05834 32.03644 28.81320
v  -3.71117 32.20691 29.15892
v  -3.70395 32.12167 29.14992
v  -3.73154 32.28353 29.18429
v  -3.76313 32.34847 29.22364
v  -3.80401 32.39866 29.27455
v  -3.85225 32.43102 29.33462
v  -3.90590 32.44249 29.40144
v  -3.95955 32.43102 29.46826
v  -4.00778 32.39866 29.52833
v  -4.04866 32.34847 29.57924
v  -4.08026 32.28353 29.61859
v  -4.10063 32.20691 29.64396
v  -4.10785 32.12167 29.65295
v  -4.10063 32.03644 29.64396
v  -4.08026 31.95982 29.61859
v  -4.04866 31.89488 29.57924
v  -4.00778 31.84469 29.52833
v  -3.95955 31.81232 29.46826
v  -3.90590 31.80085 29.40144
v  -3.85225 31.81232 29.33462
v  -3.80401 31.84469 29.27455
v  -3.76313 31.89488 29.22364
v  -3.73154 31.95982 29.18429
v  -3.71117 32.03644 29.15892
v  -3.26988 32.20691 29.44537
v  -3.26455 32.12167 29.43516
v  -3.28492 32.28353 29.47418
v  -3.30824 32.34847 29.51885
v  -3.33842 32.39866 29.57666
v  -3.37402 32.43102 29.64486
v  -3.41363 32.44249 29.72073
v  -3.45323 32.43102 29.79659
v  -3.48884 32.39866 29.86479
v  -3.51901 32.34847 29.92260
v  -3.54233 32.28353 29.96727
v  -3.55737 32.20691 29.99608
v  -3.56270 32.12167 30.00629
v  -3.55737 32.03644 29.99608
v  -3.54233 31.95982 29.96727
v  -3.51901 31.89488 29.92260
v  -3.48884 31.84469 29.86479
v  -3.45323 31.81232 29.79659
v  -3.41363 31.80085 29.72073
v  -3.37402 31.81232 29.64486
v  -3.33842 31.84469 29.57666
v  -3.30824 31.89488 29.51885
v  -3.28492 31.95982 29.47418
v  -3.26988 32.03644 29.44537
v  -2.72787 32.20691 29.67091
v  -2.72431 32.12167 29.65996
v  -2.73792 32.28353 29.70181
v  -2.75351 32.34847 29.74973
v  -2.77368 32.39866 29.81173
v  -2.79748 32.43102 29.88488
v  -2.82395 32.44249 29.96626
v  -2.85042 32.43102 30.04763
v  -2.87421 32.39866 30.12078
v  -2.89438 32.34847 30.18278
v  -2.90997 32.28353 30.23070
v  -2.92002 32.20691 30.26160
v  -2.92358 32.12167 30.27255
v  -2.92002 32.03644 30.26160
v  -2.90997 31.95982 30.23070
v  -2.89438 31.89488 30.18278
v  -2.87421 31.84469 30.12078
v  -2.85042 31.81232 30.04763
v  -2.82395 31.80085 29.96626
v  -2.79748 31.81232 29.88488
v  -2.77368 31.84469 29.81173
v  -2.75351 31.89488 29.74973
v  -2.73792 31.95982 29.70181
v  -2.72787 32.03644 29.67091
v  -2.01010 32.20691 29.82876
v  -2.00842 32.12167 29.81739
v  -2.01482 32.28353 29.86084
v  -2.02216 32.34847 29.91058
v  -2.03165 32.39866 29.97495
v  -2.04284 32.43102 30.05089
v  -2.05530 32.44249 30.13537
v  -2.06775 32.43102 30.21984
v  -2.07894 32.39866 30.29578
v  -2.08843 32.34847 30.36015
v  -2.09577 32.28353 30.40989
v  -2.10050 32.20691 30.44197
v  -2.10217 32.12167 30.45334
v  -2.10050 32.03644 30.44197
v  -2.09577 31.95982 30.40989
v  -2.08843 31.89488 30.36015
v  -2.07894 31.84469 30.29578
v  -2.06775 31.81232 30.21984
v  -2.05530 31.80085 30.13537
v  -2.04284 31.81232 30.05089
v  -2.03165 31.84469 29.97495
v  -2.02216 31.89488 29.91058
v  -2.01482 31.95982 29.86084
v  -2.01010 32.03644 29.82876
v  -1.07491 32.20691 29.91838
v  -1.07430 32.12167 29.90691
v  -1.07664 32.28353 29.95072
v  -1.07930 32.34847 30.00088
v  -1.08276 32.39866 30.06577
v  -1.08683 32.43102 30.14235
v  -1.09136 32.44249 30.22752
v  -1.09590 32.43102 30.31270
v  -1.09997 32.39866 30.38927
v  -1.10342 32.34847 30.45417
v  -1.10609 32.28353 30.50432
v  -1.10782 32.20691 30.53667
v  -1.10843 32.12167 30.54813
v  -1.10782 32.03644 30.53667
v  -1.10609 31.95982 30.50432
v  -1.10342 31.89488 30.45417
v  -1.09997 31.84469 30.38927
v  -1.09590 31.81232 30.31270
v  -1.09136 31.80085 30.22752
v  -1.08683 31.81232 30.14235
v  -1.08276 31.84469 30.06577
v  -1.07930 31.89488 30.00088
v  -1.07664 31.95982 29.95072
v  -1.07491 32.03644 29.91838
v  -0.03503 32.20691 29.93644
v  -0.03521 32.12167 29.92496
v  -0.03450 32.28353 29.96882
v  -0.03369 32.34847 30.01903
v  -0.03264 32.39866 30.08400
v  -0.03140 32.43102 30.16065
v  -0.03002 32.44249 30.24592
v  -0.02865 32.43102 30.33119
v  -0.02741 32.39866 30.40784
v  -0.02636 32.34847 30.47281
v  -0.02555 32.28353 30.52302
v  -0.02502 32.20691 30.55540
v  -0.02484 32.12167 30.56688
v  -0.02502 32.03644 30.55540
v  -0.02555 31.95982 30.52302
v  -0.02636 31.89488 30.47281
v  -0.02741 31.84469 30.40784
v  -0.02865 31.81232 30.33119
v  -0.03002 31.80085 30.24592
v  -0.03140 31.81232 30.16065
v  -0.03264 31.84469 30.08400
v  -0.03369 31.89488 30.01903
v  -0.03450 31.95982 29.96882
v  -0.03503 32.03644 29.93644
v  1.00494 32.20691 29.88529
v  1.00398 32.12167 29.87385
v  1.00765 32.28353 29.91756
v  1.01185 32.34847 29.96761
v  1.01729 32.39866 30.03237
v  1.02371 32.43102 30.10877
v  1.03086 32.44249 30.19377
v  1.03800 32.43102 30.27876
v  1.04442 32.39866 30.35516
v  1.04986 32.34847 30.41992
v  1.05406 32.28353 30.46997
v  1.05677 32.20691 30.50224
v  1.05774 32.12167 30.51368
v  1.05677 32.03644 30.50224
v  1.05406 31.95982 30.46997
v  1.04986 31.89488 30.41992
v  1.04442 31.84469 30.35516
v  1.03800 31.81232 30.27876
v  1.03086 31.80085 30.19377
v  1.02371 31.81232 30.10877
v  1.01729 31.84469 30.03237
v  1.01185 31.89488 29.96761
v  1.00765 31.95982 29.91756
v  1.00494 32.03644 29.88529
v  1.94066 32.20691 29.76894
v  1.93871 32.12167 29.75762
v  1.94618 32.28353 29.80088
v  1.95474 32.34847 29.85042
v  1.96581 32.39866 29.91451
v  1.97887 32.43102 29.99013
v  1.99340 32.44249 30.07425
v  2.00793 32.43102 30.15837
v  2.02100 32.39866 30.23399
v  2.03207 32.34847 30.29808
v  2.04063 32.28353 30.34762
v  2.04614 32.20691 30.37956
v  2.04810 32.12167 30.39088
v  2.04614 32.03644 30.37956
v  2.04063 31.95982 30.34762
v  2.03207 31.89488 30.29808
v  2.02100 31.84469 30.23399
v  2.00793 31.81232 30.15837
v  1.99340 31.80085 30.07425
v  1.97887 31.81232 29.99013
v  1.96581 31.84469 29.91451
v  1.95474 31.89488 29.85042
v  1.94618 31.95982 29.80088
v  1.94066 32.03644 29.76894
v  2.66077 32.20691 29.59637
v  2.65709 32.12167 29.58546
v  2.67112 32.28353 29.62715
v  2.68718 32.34847 29.67488
v  2.70796 32.39866 29.73664
v  2.73248 32.43102 29.80952
v  2.75975 32.44249 29.89058
v  2.78702 32.43102 29.97163
v  2.81154 32.39866 30.04450
v  2.83232 32.34847 30.10627
v  2.84838 32.28353 30.15400
v  2.85873 32.20691 30.18478
v  2.86240 32.12167 30.19569
v  2.85873 32.03644 30.18478
v  2.84838 31.95982 30.15400
v  2.83232 31.89488 30.10627
v  2.81154 31.84469 30.04450
v  2.78702 31.81232 29.97163
v  2.75975 31.80085 29.89058
v  2.73248 31.81232 29.80952
v  2.70796 31.84469 29.73664
v  2.68718 31.89488 29.67488
v  2.67112 31.95982 29.62715
v  2.66077 32.03644 29.59637
v  3.20187 32.20691 29.36727
v  3.19652 32.12167 29.35708
v  3.21698 32.28353 29.39604
v  3.24039 32.34847 29.44064
v  3.27069 32.39866 29.49836
v  3.30644 32.43102 29.56646
v  3.34620 32.44249 29.64221
v  3.38597 32.43102 29.71796
v  3.42172 32.39866 29.78606
v  3.45202 32.34847 29.84377
v  3.47543 32.28353 29.88838
v  3.49053 32.20691 29.91714
v  3.49588 32.12167 29.92734
v  3.49053 32.03644 29.91714
v  3.47543 31.95982 29.88838
v  3.45202 31.89488 29.84377
v  3.42172 31.84469 29.78606
v  3.38597 31.81232 29.71796
v  3.34620 31.80085 29.64221
v  3.30644 31.81232 29.56646
v  3.27069 31.84469 29.49836
v  3.24039 31.89488 29.44064
v  3.21698 31.95982 29.39604
v  3.20187 32.03644 29.36727
v  3.64068 32.20691 29.08320
v  3.63350 32.12167 29.07418
v  3.66094 32.28353 29.10865
v  3.69236 32.34847 29.14812
v  3.73301 32.39866 29.19920
v  3.78097 32.43102 29.25945
v  3.83433 32.44249 29.32648
v  3.88768 32.43102 29.39351
v  3.93565 32.39866 29.45377
v  3.97630 32.34847 29.50484
v  4.00772 32.28353 29.54431
v  4.02798 32.20691 29.56976
v  4.03516 32.12167 29.57878
v  4.02798 32.03644 29.56976
v  4.00772 31.95982 29.54431
v  3.97630 31.89488 29.50484
v  3.93565 31.84469 29.45377
v  3.88768 31.81232 29.39351
v  3.83433 31.80085 29.32648
v  3.78097 31.81232 29.25945
v  3.73301 31.84469 29.19920
v  3.69236 31.89488 29.14812
v  3.66094 31.95982 29.10865
v  3.64068 32.03644 29.08320
v  3.98314 32.20691 28.74644
v  3.97420 32.12167 28.73914
v  4.00835 32.28353 28.76705
v  4.04745 32.34847 28.79901
v  4.09804 32.39866 28.84035
v  4.15772 32.43102 28.88914
v  4.22412 32.44249 28.94340
v  4.29051 32.43102 28.99766
v  4.35020 32.39866 29.04645
v  4.40079 32.34847 29.08779
v  4.43988 32.28353 29.11975
v  4.46510 32.20691 29.14035
v  4.47403 32.12167 29.14766
v  4.46510 32.03644 29.14035
v  4.43988 31.95982 29.11975
v  4.40079 31.89488 29.08779
v  4.35020 31.84469 29.04645
v  4.29051 31.81232 28.99766
v  4.22412 31.80085 28.94340
v  4.15772 31.81232 28.88914
v  4.09804 31.84469 28.84035
v  4.04745 31.89488 28.79901
v  4.00835 31.95982 28.76705
v  3.98314 32.03644 28.74644
v  4.23730 32.20691 28.35368
v  4.22698 32.12167 28.34852
v  4.26641 32.28353 28.36826
v  4.31156 32.34847 28.39085
v  4.36998 32.39866 28.42009
v  4.43891 32.43102 28.45458
v  4.51558 32.44249 28.49296
v  4.59225 32.43102 28.53133
v  4.66117 32.39866 28.56583
v  4.71959 32.34847 28.59506
v  4.76474 32.28353 28.61766
v  4.79386 32.20691 28.63223
v  4.80417 32.12167 28.63740
v  4.79386 32.03644 28.63223
v  4.76474 31.95982 28.61766
v  4.71959 31.89488 28.59506
v  4.66117 31.84469 28.56583
v  4.59225 31.81232 28.53133
v  4.51558 31.80085 28.49296
v  4.43891 31.81232 28.45458
v  4.36998 31.84469 28.42009
v  4.31156 31.89488 28.39085
v  4.26641 31.95982 28.36826
v  4.23730 32.03644 28.35368
v  4.40794 32.20691 27.89664
v  4.39679 32.12167 27.89373
v  4.43941 32.28353 27.90486
v  4.48820 32.34847 27.91760
v  4.55134 32.39866 27.93408
v  4.62584 32.43102 27.95353
v  4.70871 32.44249 27.97516
v  4.79157 32.43102 27.99679
v  4.86607 32.39866 28.01624
v  4.92921 32.34847 28.03272
v  4.97801 32.28353 28.04546
v  5.00948 32.20691 28.05367
v  5.02063 32.12167 28.05658
v  5.00948 32.03644 28.05367
v  4.97801 31.95982 28.04546
v  4.92921 31.89488 28.03272
v  4.86607 31.84469 28.01624
v  4.79157 31.81232 27.99679
v  4.70871 31.80085 27.97516
v  4.62584 31.81232 27.95353
v  4.55134 31.84469 27.93408
v  4.48820 31.89488 27.91760
v  4.43941 31.95982 27.90486
v  4.40794 32.03644 27.89664
v  4.49499 32.20691 27.36725
v  4.48355 32.12167 27.36641
v  4.52727 32.28353 27.36963
v  4.57732 32.34847 27.37332
v  4.64209 32.39866 27.37810
v  4.71850 32.43102 27.38373
v  4.80350 32.44249 27.39000
v  4.88850 32.43102 27.39627
v  4.96492 32.39866 27.40190
v  5.02968 32.34847 27.40668
v  5.07974 32.28353 27.41037
v  5.11202 32.20691 27.41275
v  5.12346 32.12167 27.41359
v  5.11202 32.03644 27.41275
v  5.07974 31.95982 27.41037
v  5.02968 31.89488 27.40668
v  4.96492 31.84469 27.40190
v  4.88850 31.81232 27.39627
v  4.80350 31.80085 27.39000
v  4.71850 31.81232 27.38373
v  4.64209 31.84469 27.37810
v  4.57732 31.89488 27.37332
v  4.52727 31.95982 27.36963
v  4.49499 32.03644 27.36725
# 456 vertices

vn 0.64443 0.00000 -0.76466
vn 0.62020 0.18746 -0.76171
vn 0.93109 0.26668 -0.24892
vn 0.96606 -0.00000 -0.25832
vn 0.55029 0.35969 -0.75353
vn 0.83130 0.50952 -0.22211
vn 0.44222 0.50669 -0.74007
vn 0.67799 0.71244 -0.18099
vn 0.30076 0.62340 -0.72174
vn 0.48032 0.86769 -0.12808
vn 0.12965 0.70291 -0.69936
vn 0.24653 0.96691 -0.06564
vn -0.06112 0.73499 -0.67532
vn -0.00771 0.99997 0.00208
vn -0.25503 0.71456 -0.65143
vn -0.26084 0.96289 0.06934
vn -0.43453 0.64354 -0.63012
vn -0.49161 0.86098 0.13051
vn -0.58733 0.52990 -0.61177
vn -0.68569 0.70481 0.18186
vn -0.70672 0.37984 -0.59688
vn -0.83558 0.50276 0.22146
vn -0.78502 0.19913 -0.58660
vn -0.93273 0.26260 0.24710
vn -0.81239 0.00000 -0.58311
vn -0.96666 0.00000 0.25605
vn -0.78502 -0.19913 -0.58660
vn -0.93273 -0.26260 0.24710
vn -0.70672 -0.37984 -0.59688
vn -0.83558 -0.50276 0.22146
vn -0.58733 -0.52990 -0.61177
vn -0.68569 -0.70481 0.18186
vn -0.43453 -0.64354 -0.63011
vn -0.49161 -0.86098 0.13051
vn -0.25503 -0.71456 -0.65144
vn -0.26084 -0.96289 0.06934
vn -0.06112 -0.73499 -0.67532
vn -0.00771 -0.99997 0.00208
vn 0.12965 -0.70291 -0.69936
vn 0.24653 -0.96691 -0.06564
vn 0.30076 -0.62341 -0.72173
vn 0.48032 -0.86769 -0.12808
vn 0.44222 -0.50670 -0.74007
vn 0.67799 -0.71244 -0.18099
vn 0.55029 -0.35969 -0.75353
vn 0.83130 -0.50952 -0.22211
vn 0.62020 -0.18746 -0.76171
vn 0.93109 -0.26668 -0.24892
vn 0.86297 0.26725 -0.42879
vn 0.89554 -0.00000 -0.44499
vn 0.77011 0.51043 -0.38262
vn 0.62761 0.71337 -0.31179
vn 0.44413 0.86838 -0.22060
vn 0.22739 0.96724 -0.11291
vn -0.00804 0.99996 0.00402
vn -0.24229 0.96271 0.12032
vn -0.45582 0.86083 0.22630
vn -0.63546 0.70477 0.31544
vn -0.77428 0.50279 0.38430
vn -0.86430 0.26265 0.42895
vn -0.89575 -0.00000 0.44455
vn -0.86430 -0.26265 0.42895
vn -0.77428 -0.50279 0.38430
vn -0.63546 -0.70477 0.31544
vn -0.45582 -0.86083 0.22630
vn -0.24229 -0.96271 0.12032
vn -0.00804 -0.99996 0.00402
vn 0.22739 -0.96724 -0.11291
vn 0.44413 -0.86838 -0.22060
vn 0.62761 -0.71337 -0.31179
vn 0.77011 -0.51043 -0.38262
vn 0.86297 -0.26725 -0.42879
vn 0.75078 0.26743 -0.60400
vn 0.77916 0.00000 -0.62683
vn 0.66988 0.51071 -0.53892
vn 0.54579 0.71366 -0.43910
vn 0.38608 0.86860 -0.31061
vn 0.19750 0.96734 -0.15890
vn -0.00725 0.99996 0.00583
vn -0.21092 0.96266 0.16970
vn -0.39655 0.86078 0.31906
vn -0.55274 0.70475 0.44474
vn -0.67346 0.50281 0.54188
vn -0.75175 0.26266 0.60488
vn -0.77911 0.00000 0.62689
vn -0.75175 -0.26266 0.60488
vn -0.67346 -0.50281 0.54188
vn -0.55274 -0.70475 0.44474
vn -0.39655 -0.86078 0.31906
vn -0.21092 -0.96266 0.16970
vn -0.00725 -0.99996 0.00583
vn 0.19750 -0.96734 -0.15890
vn 0.38608 -0.86860 -0.31061
vn 0.54579 -0.71366 -0.43910
vn 0.66988 -0.51071 -0.53892
vn 0.75078 -0.26743 -0.60400
vn 0.60561 0.26713 -0.74959
vn 0.62846 0.00000 -0.77784
vn 0.54046 0.51023 -0.66900
vn 0.44048 0.71317 -0.54531
vn 0.31174 0.86823 -0.38599
vn 0.15966 0.96717 -0.19774
vn -0.00553 0.99996 0.00681
vn -0.16987 0.96275 0.21037
vn -0.31962 0.86086 0.39593
vn -0.44558 0.70478 0.55204
vn -0.54288 0.50279 0.67267
vn -0.60596 0.26264 0.75089
vn -0.62800 -0.00000 0.77822
vn -0.60596 -0.26264 0.75089
vn -0.54288 -0.50279 0.67267
vn -0.44558 -0.70478 0.55204
vn -0.31962 -0.86086 0.39593
vn -0.16987 -0.96275 0.21037
vn -0.00553 -0.99996 0.00681
vn 0.15966 -0.96717 -0.19774
vn 0.31174 -0.86823 -0.38599
vn 0.44048 -0.71317 -0.54531
vn 0.54046 -0.51023 -0.66900
vn 0.60561 -0.26713 -0.74959
vn 0.44941 0.26652 -0.85264
vn 0.46628 0.00000 -0.88464
vn 0.40127 0.50927 -0.76133
vn 0.32730 0.71219 -0.62102
vn 0.23192 0.86749 -0.44008
vn 0.11910 0.96681 -0.22604
vn -0.00359 0.99997 0.00675
vn -0.12573 0.96296 0.23855
vn -0.23706 0.86106 0.44986
vn -0.33066 0.70487 0.62755
vn -0.40292 0.50279 0.76476
vn -0.44975 0.26262 0.85367
vn -0.46610 0.00000 0.88473
vn -0.44975 -0.26262 0.85367
vn -0.40292 -0.50279 0.76476
vn -0.33066 -0.70487 0.62755
vn -0.23706 -0.86106 0.44986
vn -0.12573 -0.96296 0.23855
vn -0.00359 -0.99997 0.00675
vn 0.11910 -0.96681 -0.22604
vn 0.23192 -0.86749 -0.44008
vn 0.32730 -0.71219 -0.62102
vn 0.40127 -0.50927 -0.76133
vn 0.44941 -0.26652 -0.85264
vn 0.28974 0.26645 -0.91927
vn 0.30060 0.00000 -0.95375
vn 0.25875 0.50915 -0.82086
vn 0.21111 0.71206 -0.66963
vn 0.14966 0.86740 -0.47457
vn 0.07694 0.96677 -0.24381
vn -0.00220 0.99997 0.00720
vn -0.08104 0.96297 0.25713
vn -0.15294 0.86107 0.48494
vn -0.21343 0.70487 0.67647
vn -0.26015 0.50278 0.82434
vn -0.29043 0.26261 0.92016
vn -0.30101 -0.00000 0.95362
vn -0.29043 -0.26261 0.92016
vn -0.26015 -0.50278 0.82434
vn -0.21343 -0.70487 0.67647
vn -0.15294 -0.86107 0.48494
vn -0.08104 -0.96297 0.25712
vn -0.00220 -0.99997 0.00720
vn 0.07694 -0.96677 -0.24381
vn 0.14966 -0.86740 -0.47457
vn 0.21111 -0.71206 -0.66963
vn 0.25875 -0.50915 -0.82086
vn 0.28974 -0.26645 -0.91927
vn 0.14985 0.26531 -0.95245
vn 0.15542 -0.00000 -0.98785
vn 0.13391 0.50734 -0.85128
vn 0.10938 0.71017 -0.69548
vn 0.07768 0.86594 -0.49407
vn 0.04010 0.96604 -0.25526
vn -0.00085 0.99999 0.00507
vn -0.04165 0.96345 0.26464
vn -0.07884 0.86162 0.50139
vn -0.11008 0.70527 0.70034
vn -0.13416 0.50300 0.85381
vn -0.14975 0.26270 0.95318
vn -0.15519 0.00000 0.98788
vn -0.14975 -0.26271 0.95318
vn -0.13416 -0.50300 0.85381
vn -0.11008 -0.70527 0.70034
vn -0.07884 -0.86162 0.50139
vn -0.04165 -0.96345 0.26464
vn -0.00085 -0.99999 0.00507
vn 0.04010 -0.96604 -0.25526
vn 0.07768 -0.86594 -0.49407
vn 0.10938 -0.71017 -0.69548
vn 0.13391 -0.50734 -0.85128
vn 0.14985 -0.26531 -0.95245
vn 0.05442 0.26460 -0.96282
vn 0.05644 -0.00000 -0.99841
vn 0.04865 0.50619 -0.86105
vn 0.03977 0.70895 -0.70414
vn 0.02828 0.86496 -0.50105
vn 0.01466 0.96552 -0.25992
vn -0.00020 0.99999 0.00330
vn -0.01500 0.96385 0.26603
vn -0.02849 0.86218 0.50581
vn -0.03982 0.70579 0.70730
vn -0.04854 0.50340 0.86269
vn -0.05419 0.26292 0.96329
vn -0.05616 0.00000 0.99842
vn -0.05419 -0.26292 0.96329
vn -0.04854 -0.50340 0.86269
vn -0.03982 -0.70579 0.70730
vn -0.02849 -0.86218 0.50581
vn -0.01500 -0.96385 0.26603
vn -0.00020 -0.99999 0.00330
vn 0.01466 -0.96552 -0.25992
vn 0.02828 -0.86496 -0.50105
vn 0.03977 -0.70895 -0.70414
vn 0.04865 -0.50619 -0.86105
vn 0.05442 -0.26460 -0.96282
vn -0.01532 0.26443 -0.96428
vn -0.01589 -0.00000 -0.99987
vn -0.01370 0.50590 -0.86248
vn -0.01121 0.70864 -0.70548
vn -0.00798 0.86471 -0.50221
vn -0.00415 0.96538 -0.26080
vn 0.00004 1.00000 0.00282
vn 0.00423 0.96396 0.26602
vn 0.00805 0.86234 0.50627
vn 0.01126 0.70596 0.70817
vn 0.01374 0.50353 0.86387
vn 0.01534 0.26300 0.96467
vn 0.01590 0.00000 0.99987
vn 0.01534 -0.26300 0.96467
vn 0.01374 -0.50353 0.86387
vn 0.01126 -0.70595 0.70817
vn 0.00805 -0.86234 0.50627
vn 0.00423 -0.96396 0.26602
vn 0.00004 -1.00000 0.00282
vn -0.00415 -0.96538 -0.26080
vn -0.00798 -0.86471 -0.50221
vn -0.01121 -0.70864 -0.70548
vn -0.01370 -0.50590 -0.86248
vn -0.01532 -0.26443 -0.96428
vn -0.08325 0.26455 -0.96077
vn -0.08633 -0.00000 -0.99627
vn -0.07444 0.50610 -0.85926
vn -0.06087 0.70885 -0.70273
vn -0.04330 0.86488 -0.50011
vn -0.02246 0.96548 -0.25952
vn 0.00028 0.99999 0.00314
vn 0.02296 0.96388 0.26534
vn 0.04365 0.86222 0.50464
vn 0.06103 0.70584 0.70573
vn 0.07442 0.50344 0.86082
vn 0.08309 0.26295 0.96123
vn 0.08612 -0.00000 0.99628
vn 0.08309 -0.26295 0.96123
vn 0.07442 -0.50344 0.86082
vn 0.06103 -0.70584 0.70573
vn 0.04365 -0.86222 0.50464
vn 0.02296 -0.96388 0.26534
vn 0.00028 -0.99999 0.00314
vn -0.02246 -0.96548 -0.25952
vn -0.04330 -0.86488 -0.50011
vn -0.06087 -0.70885 -0.70273
vn -0.07444 -0.50610 -0.85926
vn -0.08325 -0.26455 -0.96077
vn -0.17214 0.26515 -0.94872
vn -0.17854 -0.00000 -0.98393
vn -0.15386 0.50707 -0.84806
vn -0.12571 0.70989 -0.69300
vn -0.08932 0.86572 -0.49250
vn -0.04616 0.96592 -0.25468
vn 0.00088 0.99999 0.00465
vn 0.04778 0.96353 0.26329
vn 0.09054 0.86174 0.49922
vn 0.12645 0.70537 0.69747
vn 0.15414 0.50308 0.85039
vn 0.17206 0.26274 0.94940
vn 0.17832 0.00000 0.98397
vn 0.17206 -0.26274 0.94940
vn 0.15414 -0.50308 0.85038
vn 0.12645 -0.70537 0.69747
vn 0.09054 -0.86174 0.49922
vn 0.04778 -0.96353 0.26329
vn 0.00088 -0.99999 0.00465
vn -0.04616 -0.96592 -0.25468
vn -0.08932 -0.86572 -0.49250
vn -0.12571 -0.70989 -0.69300
vn -0.15386 -0.50707 -0.84806
vn -0.17214 -0.26515 -0.94872
vn -0.30121 0.26618 -0.91565
vn -0.31248 0.00000 -0.94992
vn -0.26904 0.50873 -0.81781
vn -0.21957 0.71163 -0.66737
vn -0.15572 0.86707 -0.47323
vn -0.08013 0.96660 -0.24342
vn 0.00214 0.99998 0.00666
vn 0.08411 0.96308 0.25575
vn 0.15887 0.86118 0.48283
vn 0.22173 0.70494 0.67372
vn 0.27026 0.50281 0.82106
vn 0.30171 0.26262 0.91652
vn 0.31269 -0.00000 0.94985
vn 0.30171 -0.26262 0.91652
vn 0.27026 -0.50281 0.82106
vn 0.22173 -0.70494 0.67372
vn 0.15887 -0.86118 0.48283
vn 0.08411 -0.96308 0.25575
vn 0.00214 -0.99998 0.00666
vn -0.08013 -0.96660 -0.24343
vn -0.15572 -0.86707 -0.47323
vn -0.21957 -0.71163 -0.66737
vn -0.26904 -0.50873 -0.81781
vn -0.30121 -0.26618 -0.91565
vn -0.45153 0.26636 -0.85157
vn -0.46846 0.00000 -0.88348
vn -0.40321 0.50902 -0.76047
vn -0.32894 0.71192 -0.62045
vn -0.23315 0.86729 -0.43982
vn -0.11981 0.96671 -0.22608
vn 0.00346 0.99997 0.00647
vn 0.12621 0.96301 0.23807
vn 0.23808 0.86112 0.44921
vn 0.33212 0.70491 0.62674
vn 0.40471 0.50280 0.76380
vn 0.45174 0.26262 0.85262
vn 0.46817 0.00000 0.88364
vn 0.45174 -0.26262 0.85262
vn 0.40471 -0.50280 0.76380
vn 0.33212 -0.70491 0.62674
vn 0.23808 -0.86112 0.44921
vn 0.12621 -0.96301 0.23807
vn 0.00346 -0.99997 0.00647
vn -0.11981 -0.96671 -0.22608
vn -0.23315 -0.86729 -0.43982
vn -0.32894 -0.71192 -0.62045
vn -0.40321 -0.50902 -0.76047
vn -0.45153 -0.26636 -0.85157
vn -0.60281 0.26701 -0.75189
vn -0.62553 -0.00000 -0.78020
vn -0.53801 0.51004 -0.67112
vn -0.43854 0.71298 -0.54712
vn -0.31043 0.86809 -0.38737
vn -0.15907 0.96710 -0.19855
vn 0.00537 0.99996 0.00666
vn 0.16898 0.96279 0.21091
vn 0.31807 0.86089 0.39711
vn 0.44344 0.70479 0.55374
vn 0.54029 0.50278 0.67476
vn 0.60306 0.26263 0.75322
vn 0.62499 -0.00000 0.78063
vn 0.60306 -0.26263 0.75322
vn 0.54029 -0.50278 0.67476
vn 0.44344 -0.70479 0.55374
vn 0.31807 -0.86089 0.39711
vn 0.16898 -0.96279 0.21091
vn 0.00537 -0.99996 0.00666
vn -0.15907 -0.96710 -0.19855
vn -0.31043 -0.86809 -0.38737
vn -0.43854 -0.71298 -0.54712
vn -0.53801 -0.51004 -0.67112
vn -0.60281 -0.26701 -0.75189
vn -0.74679 0.26742 -0.60893
vn -0.77502 0.00000 -0.63194
vn -0.66632 0.51069 -0.54333
vn -0.54289 0.71364 -0.44271
vn -0.38403 0.86858 -0.31319
vn -0.19646 0.96733 -0.16024
vn 0.00719 0.99996 0.00586
vn 0.20978 0.96266 0.17109
vn 0.39441 0.86078 0.32171
vn 0.54975 0.70476 0.44844
vn 0.66980 0.50281 0.54640
vn 0.74766 0.26266 0.60993
vn 0.77487 -0.00000 0.63213
vn 0.74766 -0.26266 0.60993
vn 0.66980 -0.50281 0.54640
vn 0.54975 -0.70476 0.44844
vn 0.39441 -0.86078 0.32171
vn 0.20978 -0.96266 0.17109
vn 0.00719 -0.99996 0.00585
vn -0.19646 -0.96733 -0.16024
vn -0.38403 -0.86858 -0.31318
vn -0.54289 -0.71364 -0.44271
vn -0.66632 -0.51069 -0.54333
vn -0.74679 -0.26742 -0.60893
vn -0.86092 0.26736 -0.43283
vn -0.89344 0.00000 -0.44919
vn -0.76821 0.51059 -0.38620
vn -0.62598 0.71354 -0.31467
vn -0.44288 0.86851 -0.22260
vn -0.22664 0.96730 -0.11389
vn 0.00819 0.99996 0.00413
vn 0.24182 0.96268 0.12152
vn 0.45477 0.86080 0.22849
vn 0.63395 0.70476 0.31848
vn 0.77242 0.50280 0.38801
vn 0.86223 0.26266 0.43310
vn 0.89360 -0.00000 0.44886
vn 0.86223 -0.26266 0.43310
vn 0.77242 -0.50280 0.38801
vn 0.63394 -0.70476 0.31848
vn 0.45477 -0.86080 0.22849
vn 0.24182 -0.96268 0.12152
vn 0.00819 -0.99996 0.00413
vn -0.22664 -0.96730 -0.11389
vn -0.44288 -0.86851 -0.22260
vn -0.62598 -0.71354 -0.31467
vn -0.76821 -0.51059 -0.38620
vn -0.86092 -0.26736 -0.43283
vn -0.93130 0.26684 -0.24794
vn -0.96633 -0.00000 -0.25732
vn -0.83138 0.50978 -0.22119
vn -0.67792 0.71271 -0.18019
vn -0.48012 0.86790 -0.12745
vn -0.24624 0.96701 -0.06526
vn 0.00801 0.99997 0.00215
vn 0.26113 0.96283 0.06907
vn 0.49187 0.86092 0.12992
vn 0.68595 0.70478 0.18099
vn 0.83586 0.50275 0.22038
vn 0.93305 0.26261 0.24589
vn 0.96700 0.00000 0.25479
vn 0.93305 -0.26261 0.24589
vn 0.83586 -0.50275 0.22038
vn 0.68595 -0.70478 0.18099
vn 0.49187 -0.86092 0.12992
vn 0.26113 -0.96283 0.06907
vn 0.00801 -0.99997 0.00215
vn -0.24624 -0.96701 -0.06526
vn -0.48012 -0.86790 -0.12745
vn -0.67792 -0.71271 -0.18019
vn -0.83138 -0.50978 -0.22119
vn -0.93130 -0.26684 -0.24794
vn -0.62547 0.18713 -0.75748
vn -0.64963 -0.00000 -0.76025
vn -0.55575 0.35912 -0.74978
vn -0.44793 0.50606 -0.73706
vn -0.30666 0.62289 -0.71970
vn -0.13560 0.70263 -0.69852
vn 0.05527 0.73501 -0.67580
vn 0.24944 0.71485 -0.65328
vn 0.42928 0.64401 -0.63322
vn 0.58247 0.53042 -0.61594
vn 0.70221 0.38028 -0.60190
vn 0.78075 0.19938 -0.59218
vn 0.80822 -0.00000 -0.58888
vn 0.78075 -0.19938 -0.59218
vn 0.70221 -0.38028 -0.60190
vn 0.58247 -0.53042 -0.61594
vn 0.42928 -0.64401 -0.63322
vn 0.24944 -0.71485 -0.65328
vn 0.05527 -0.73500 -0.67581
vn -0.13560 -0.70263 -0.69852
vn -0.30666 -0.62289 -0.71970
vn -0.44793 -0.50606 -0.73706
vn -0.55576 -0.35913 -0.74977
vn -0.62547 -0.18713 -0.75748
# 456 vertex normals

o Loft001
g Loft001
usemtl wire_000000000
s 257
f 161//135 162//136 163//137 164//138 
s 515
f 162//136 165//139 166//140 163//137 
s 1026
f 165//139 167//141 168//142 166//140 
s 514
f 167//141 169//143 170//144 168//142 
s 1026
f 169//143 171//145 172//146 170//144 
s 514
f 171//145 173//147 174//148 172//146 
s 1026
f 173//147 175//149 176//150 174//148 
s 514
f 175//149 177//151 178//152 176//150 
s 1026
f 177//151 179//153 180//154 178//152 
s 514
f 179//153 181//155 182//156 180//154 
s 1026
f 181//155 183//157 184//158 182//156 
s 514
f 183//157 185//159 186//160 184//158 
s 1026
f 185//159 187//161 188//162 186//160 
s 514
f 187//161 189//163 190//164 188//162 
s 1026
f 189//163 191//165 192//166 190//164 
s 514
f 191//165 193//167 194//168 192//166 
s 1026
f 193//167 195//169 196//170 194//168 
s 514
f 195//169 197//171 198//172 196//170 
s 1026
f 197//171 199//173 200//174 198//172 
s 514
f 199//173 201//175 202//176 200//174 
s 1026
f 201//175 203//177 204//178 202//176 
s 514
f 203//177 205//179 206//180 204//178 
s 1026
f 205//179 207//181 208//182 206//180 
s 515
f 207//181 161//135 164//138 208//182 
s 264
f 164//138 163//137 209//183 210//184 
s 536
f 163//137 166//140 211//185 209//183 
s 1040
f 166//140 168//142 212//186 211//185 
s 528
f 168//142 170//144 213//187 212//186 
s 1040
f 170//144 172//146 214//188 213//187 
s 528
f 172//146 174//148 215//189 214//188 
s 1040
f 174//148 176//150 216//190 215//189 
s 528
f 176//150 178//152 217//191 216//190 
s 1040
f 178//152 180//154 218//192 217//191 
s 528
f 180//154 182//156 219//193 218//192 
s 1040
f 182//156 184//158 220//194 219//193 
s 528
f 184//158 186//160 221//195 220//194 
s 1040
f 186//160 188//162 222//196 221//195 
s 528
f 188//162 190//164 223//197 222//196 
s 1040
f 190//164 192//166 224//198 223//197 
s 528
f 192//166 194//168 225//199 224//198 
s 1040
f 194//168 196//170 226//200 225//199 
s 528
f 196//170 198//172 227//201 226//200 
s 1040
f 198//172 200//174 228//202 227//201 
s 528
f 200//174 202//176 229//203 228//202 
s 1040
f 202//176 204//178 230//204 229//203 
s 528
f 204//178 206//180 231//205 230//204 
s 1040
f 206//180 208//182 232//206 231//205 
s 536
f 208//182 164//138 210//184 232//206 
s 257
f 210//184 209//183 233//207 234//208 
s 515
f 209//183 211//185 235//209 233//207 
s 1026
f 211//185 212//186 236//210 235//209 
s 514
f 212//186 213//187 237//211 236//210 
s 1026
f 213//187 214//188 238//212 237//211 
s 514
f 214//188 215//189 239//213 238//212 
s 1026
f 215//189 216//190 240//214 239//213 
s 514
f 216//190 217//191 241//215 240//214 
s 1026
f 217//191 218//192 242//216 241//215 
s 514
f 218//192 219//193 243//217 242//216 
s 1026
f 219//193 220//194 244//218 243//217 
s 514
f 220//194 221//195 245//219 244//218 
s 1026
f 221//195 222//196 246//220 245//219 
s 514
f 222//196 223//197 247//221 246//220 
s 1026
f 223//197 224//198 248//222 247//221 
s 514
f 224//198 225//199 249//223 248//222 
s 1026
f 225//199 226//200 250//224 249//223 
s 514
f 226//200 227//201 251//225 250//224 
s 1026
f 227//201 228//202 252//226 251//225 
s 514
f 228//202 229//203 253//227 252//226 
s 1026
f 229//203 230//204 254//228 253//227 
s 514
f 230//204 231//205 255//229 254//228 
s 1026
f 231//205 232//206 256//230 255//229 
s 515
f 232//206 210//184 234//208 256//230 
s 264
f 234//208 233//207 257//231 258//232 
s 536
f 233//207 235//209 259//233 257//231 
s 1040
f 235//209 236//210 260//234 259//233 
s 528
f 236//210 237//211 261//235 260//234 
s 1040
f 237//211 238//212 262//236 261//235 
s 528
f 238//212 239//213 263//237 262//236 
s 1040
f 239//213 240//214 264//238 263//237 
s 528
f 240//214 241//215 265//239 264//238 
s 1040
f 241//215 242//216 266//240 265//239 
s 528
f 242//216 243//217 267//241 266//240 
s 1040
f 243//217 244//218 268//242 267//241 
s 528
f 244//218 245//219 269//243 268//242 
s 1040
f 245//219 246//220 270//244 269//243 
s 528
f 246//220 247//221 271//245 270//244 
s 1040
f 247//221 248//222 272//246 271//245 
s 528
f 248//222 249//223 273//247 272//246 
s 1040
f 249//223 250//224 274//248 273//247 
s 528
f 250//224 251//225 275//249 274//248 
s 1040
f 251//225 252//226 276//250 275//249 
s 528
f 252//226 253//227 277//251 276//250 
s 1040
f 253//227 254//228 278//252 277//251 
s 528
f 254//228 255//229 279//253 278//252 
s 1040
f 255//229 256//230 280//254 279//253 
s 536
f 256//230 234//208 258//232 280//254 
s 257
f 258//232 257//231 281//255 282//256 
s 515
f 257//231 259//233 283//257 281//255 
s 1026
f 259//233 260//234 284//258 283//257 
s 514
f 260//234 261//235 285//259 284//258 
s 1026
f 261//235 262//236 286//260 285//259 
s 514
f 262//236 263//237 287//261 286//260 
s 1026
f 263//237 264//238 288//262 287//261 
s 514
f 264//238 265//239 289//263 288//262 
s 1026
f 265//239 266//240 290//264 289//263 
s 514
f 266//240 267//241 291//265 290//264 
s 1026
f 267//241 268//242 292//266 291//265 
s 514
f 268//242 269//243 293//267 292//266 
s 1026
f 269//243 270//244 294//268 293//267 
s 514
f 270//244 271//245 295//269 294//268 
s 1026
f 271//245 272//246 296//270 295//269 
s 514
f 272//246 273//247 297//271 296//270 
s 1026
f 273//247 274//248 298//272 297//271 
s 514
f 274//248 275//249 299//273 298//272 
s 1026
f 275//249 276//250 300//274 299//273 
s 514
f 276//250 277//251 301//275 300//274 
s 1026
f 277//251 278//252 302//276 301//275 
s 514
f 278//252 279//253 303//277 302//276 
s 1026
f 279//253 280//254 304//278 303//277 
s 515
f 280//254 258//232 282//256 304//278 
s 264
f 282//256 281//255 305//279 306//280 
s 536
f 281//255 283//257 307//281 305//279 
s 1040
f 283//257 284//258 308//282 307//281 
s 528
f 284//258 285//259 309//283 308//282 
s 1040
f 285//259 286//260 310//284 309//283 
s 528
f 286//260 287//261 311//285 310//284 
s 1040
f 287//261 288//262 312//286 311//285 
s 528
f 288//262 289//263 313//287 312//286 
s 1040
f 289//263 290//264 314//288 313//287 
s 528
f 290//264 291//265 315//289 314//288 
s 1040
f 291//265 292//266 316//290 315//289 
s 528
f 292//266 293//267 317//291 316//290 
s 1040
f 293//267 294//268 318//292 317//291 
s 528
f 294//268 295//269 319//293 318//292 
s 1040
f 295//269 296//270 320//294 319//293 
s 528
f 296//270 297//271 321//295 320//294 
s 1040
f 297//271 298//272 322//296 321//295 
s 528
f 298//272 299//273 323//297 322//296 
s 1040
f 299//273 300//274 324//298 323//297 
s 528
f 300//274 301//275 325//299 324//298 
s 1040
f 301//275 302//276 326//300 325//299 
s 528
f 302//276 303//277 327//301 326//300 
s 1040
f 303//277 304//278 328//302 327//301 
s 536
f 304//278 282//256 306//280 328//302 
s 257
f 306//280 305//279 329//303 330//304 
s 515
f 305//279 307//281 331//305 329//303 
s 1026
f 307//281 308//282 332//306 331//305 
s 514
f 308//282 309//283 333//307 332//306 
s 1026
f 309//283 310//284 334//308 333//307 
s 514
f 310//284 311//285 335//309 334//308 
s 1026
f 311//285 312//286 336//310 335//309 
s 514
f 312//286 313//287 337//311 336//310 
s 1026
f 313//287 314//288 338//312 337//311 
s 514
f 314//288 315//289 339//313 338//312 
s 1026
f 315//289 316//290 340//314 339//313 
s 514
f 316//290 317//291 341//315 340//314 
s 1026
f 317//291 318//292 342//316 341//315 
s 514
f 318//292 319//293 343//317 342//316 
s 1026
f 319//293 320//294 344//318 343//317 
s 514
f 320//294 321//295 345//319 344//318 
s 1026
f 321//295 322//296 346//320 345//319 
s 514
f 322//296 323//297 347//321 346//320 
s 1026
f 323//297 324//298 348//322 347//321 
s 514
f 324//298 325//299 349//323 348//322 
s 1026
f 325//299 326//300 350//324 349//323 
s 514
f 326//300 327//301 351//325 350//324 
s 1026
f 327//301 328//302 352//326 351//325 
s 515
f 328//302 306//280 330//304 352//326 
s 264
f 330//304 329//303 353//327 354//328 
s 536
f 329//303 331//305 355//329 353//327 
s 1040
f 331//305 332//306 356//330 355//329 
s 528
f 332//306 333//307 357//331 356//330 
s 1040
f 333//307 334//308 358//332 357//331 
s 528
f 334//308 335//309 359//333 358//332 
s 1040
f 335//309 336//310 360//334 359//333 
s 528
f 336//310 337//311 361//335 360//334 
s 1040
f 337//311 338//312 362//336 361//335 
s 528
f 338//312 339//313 363//337 362//336 
s 1040
f 339//313 340//314 364//338 363//337 
s 528
f 340//314 341//315 365//339 364//338 
s 1040
f 341//315 342//316 366//340 365//339 
s 528
f 342//316 343//317 367//341 366//340 
s 1040
f 343//317 344//318 368//342 367//341 
s 528
f 344//318 345//319 369//343 368//342 
s 1040
f 345//319 346//320 370//344 369//343 
s 528
f 346//320 347//321 371//345 370//344 
s 1040
f 347//321 348//322 372//346 371//345 
s 528
f 348//322 349//323 373//347 372//346 
s 1040
f 349//323 350//324 374//348 373//347 
s 528
f 350//324 351//325 375//349 374//348 
s 1040
f 351//325 352//326 376//350 375//349 
s 536
f 352//326 330//304 354//328 376//350 
s 257
f 354//328 353//327 377//351 378//352 
s 515
f 353//327 355//329 379//353 377//351 
s 1026
f 355//329 356//330 380//354 379//353 
s 514
f 356//330 357//331 381//355 380//354 
s 1026
f 357//331 358//332 382//356 381//355 
s 514
f 358//332 359//333 383//357 382//356 
s 1026
f 359//333 360//334 384//358 383//357 
s 514
f 360//334 361//335 385//359 384//358 
s 1026
f 361//335 362//336 386//360 385//359 
s 514
f 362//336 363//337 387//361 386//360 
s 1026
f 363//337 364//338 388//362 387//361 
s 514
f 364//338 365//339 389//363 388//362 
s 1026
f 365//339 366//340 390//364 389//363 
s 514
f 366//340 367//341 391//365 390//364 
s 1026
f 367//341 368//342 392//366 391//365 
s 514
f 368//342 369//343 393//367 392//366 
s 1026
f 369//343 370//344 394//368 393//367 
s 514
f 370//344 371//345 395//369 394//368 
s 1026
f 371//345 372//346 396//370 395//369 
s 514
f 372//346 373//347 397//371 396//370 
s 1026
f 373//347 374//348 398//372 397//371 
s 514
f 374//348 375//349 399//373 398//372 
s 1026
f 375//349 376//350 400//374 399//373 
s 515
f 376//350 354//328 378//352 400//374 
s 264
f 378//352 377//351 401//375 402//376 
s 536
f 377//351 379//353 403//377 401//375 
s 1040
f 379//353 380//354 404//378 403//377 
s 528
f 380//354 381//355 405//379 404//378 
s 1040
f 381//355 382//356 406//380 405//379 
s 528
f 382//356 383//357 407//381 406//380 
s 1040
f 383//357 384//358 408//382 407//381 
s 528
f 384//358 385//359 409//383 408//382 
s 1040
f 385//359 386//360 410//384 409//383 
s 528
f 386//360 387//361 411//385 410//384 
s 1040
f 387//361 388//362 412//386 411//385 
s 528
f 388//362 389//363 413//387 412//386 
s 1040
f 389//363 390//364 414//388 413//387 
s 528
f 390//364 391//365 415//389 414//388 
s 1040
f 391//365 392//366 416//390 415//389 
s 528
f 392//366 393//367 417//391 416//390 
s 1040
f 393//367 394//368 418//392 417//391 
s 528
f 394//368 395//369 419//393 418//392 
s 1040
f 395//369 396//370 420//394 419//393 
s 528
f 396//370 397//371 421//395 420//394 
s 1040
f 397//371 398//372 422//396 421//395 
s 528
f 398//372 399//373 423//397 422//396 
s 1040
f 399//373 400//374 424//398 423//397 
s 536
f 400//374 378//352 402//376 424//398 
s 257
f 402//376 401//375 425//399 426//400 
s 515
f 401//375 403//377 427//401 425//399 
s 1026
f 403//377 404//378 428//402 427//401 
s 514
f 404//378 405//379 429//403 428//402 
s 1026
f 405//379 406//380 430//404 429//403 
s 514
f 406//380 407//381 431//405 430//404 
s 1026
f 407//381 408//382 432//406 431//405 
s 514
f 408//382 409//383 433//407 432//406 
s 1026
f 409//383 410//384 434//408 433//407 
s 514
f 410//384 411//385 435//409 434//408 
s 1026
f 411//385 412//386 436//410 435//409 
s 514
f 412//386 413//387 437//411 436//410 
s 1026
f 413//387 414//388 438//412 437//411 
s 514
f 414//388 415//389 439//413 438//412 
s 1026
f 415//389 416//390 440//414 439//413 
s 514
f 416//390 417//391 441//415 440//414 
s 1026
f 417//391 418//392 442//416 441//415 
s 514
f 418//392 419//393 443//417 442//416 
s 1026
f 419//393 420//394 444//418 443//417 
s 514
f 420//394 421//395 445//419 444//418 
s 1026
f 421//395 422//396 446//420 445//419 
s 514
f 422//396 423//397 447//421 446//420 
s 1026
f 423//397 424//398 448//422 447//421 
s 515
f 424//398 402//376 426//400 448//422 
s 264
f 426//400 425//399 449//423 450//424 
s 536
f 425//399 427//401 451//425 449//423 
s 1040
f 427//401 428//402 452//426 451//425 
s 528
f 428//402 429//403 453//427 452//426 
s 1040
f 429//403 430//404 454//428 453//427 
s 528
f 430//404 431//405 455//429 454//428 
s 1040
f 431//405 432//406 456//430 455//429 
s 528
f 432//406 433//407 457//431 456//430 
s 1040
f 433//407 434//408 458//432 457//431 
s 528
f 434//408 435//409 459//433 458//432 
s 1040
f 435//409 436//410 460//434 459//433 
s 528
f 436//410 437//411 461//435 460//434 
s 1040
f 437//411 438//412 462//436 461//435 
s 528
f 438//412 439//413 463//437 462//436 
s 1040
f 439//413 440//414 464//438 463//437 
s 528
f 440//414 441//415 465//439 464//438 
s 1040
f 441//415 442//416 466//440 465//439 
s 528
f 442//416 443//417 467//441 466//440 
s 1040
f 443//417 444//418 468//442 467//441 
s 528
f 444//418 445//419 469//443 468//442 
s 1040
f 445//419 446//420 470//444 469//443 
s 528
f 446//420 447//421 471//445 470//444 
s 1040
f 447//421 448//422 472//446 471//445 
s 536
f 448//422 426//400 450//424 472//446 
s 257
f 450//424 449//423 473//447 474//448 
s 515
f 449//423 451//425 475//449 473//447 
s 1026
f 451//425 452//426 476//450 475//449 
s 514
f 452//426 453//427 477//451 476//450 
s 1026
f 453//427 454//428 478//452 477//451 
s 514
f 454//428 455//429 479//453 478//452 
s 1026
f 455//429 456//430 480//454 479//453 
s 514
f 456//430 457//431 481//455 480//454 
s 1026
f 457//431 458//432 482//456 481//455 
s 514
f 458//432 459//433 483//457 482//456 
s 1026
f 459//433 460//434 484//458 483//457 
s 514
f 460//434 461//435 485//459 484//458 
s 1026
f 461//435 462//436 486//460 485//459 
s 514
f 462//436 463//437 487//461 486//460 
s 1026
f 463//437 464//438 488//462 487//461 
s 514
f 464//438 465//439 489//463 488//462 
s 1026
f 465//439 466//440 490//464 489//463 
s 514
f 466//440 467//441 491//465 490//464 
s 1026
f 467//441 468//442 492//466 491//465 
s 514
f 468//442 469//443 493//467 492//466 
s 1026
f 469//443 470//444 494//468 493//467 
s 514
f 470//444 471//445 495//469 494//468 
s 1026
f 471//445 472//446 496//470 495//469 
s 515
f 472//446 450//424 474//448 496//470 
s 264
f 474//448 473//447 497//471 498//472 
s 536
f 473//447 475//449 499//473 497//471 
s 1040
f 475//449 476//450 500//474 499//473 
s 528
f 476//450 477//451 501//475 500//474 
s 1040
f 477//451 478//452 502//476 501//475 
s 528
f 478//452 479//453 503//477 502//476 
s 1040
f 479//453 480//454 504//478 503//477 
s 528
f 480//454 481//455 505//479 504//478 
s 1040
f 481//455 482//456 506//480 505//479 
s 528
f 482//456 483//457 507//481 506//480 
s 1040
f 483//457 484//458 508//482 507//481 
s 528
f 484//458 485//459 509//483 508//482 
s 1040
f 485//459 486//460 510//484 509//483 
s 528
f 486//460 487//461 511//485 510//484 
s 1040
f 487//461 488//462 512//486 511//485 
s 528
f 488//462 489//463 513//487 512//486 
s 1040
f 489//463 490//464 514//488 513//487 
s 528
f 490//464 491//465 515//489 514//488 
s 1040
f 491//465 492//466 516//490 515//489 
s 528
f 492//466 493//467 517//491 516//490 
s 1040
f 493//467 494//468 518//492 517//491 
s 528
f 494//468 495//469 519//493 518//492 
s 1040
f 495//469 496//470 520//494 519//493 
s 536
f 496//470 474//448 498//472 520//494 
s 257
f 498//472 497//471 521//495 522//496 
s 515
f 497//471 499//473 523//497 521//495 
s 1026
f 499//473 500//474 524//498 523//497 
s 514
f 500//474 501//475 525//499 524//498 
s 1026
f 501//475 502//476 526//500 525//499 
s 514
f 502//476 503//477 527//501 526//500 
s 1026
f 503//477 504//478 528//502 527//501 
s 514
f 504//478 505//479 529//503 528//502 
s 1026
f 505//479 506//480 530//504 529//503 
s 514
f 506//480 507//481 531//505 530//504 
s 1026
f 507//481 508//482 532//506 531//505 
s 514
f 508//482 509//483 533//507 532//506 
s 1026
f 509//483 510//484 534//508 533//507 
s 514
f 510//484 511//485 535//509 534//508 
s 1026
f 511//485 512//486 536//510 535//509 
s 514
f 512//486 513//487 537//511 536//510 
s 1026
f 513//487 514//488 538//512 537//511 
s 514
f 514//488 515//489 539//513 538//512 
s 1026
f 515//489 516//490 540//514 539//513 
s 514
f 516//490 517//491 541//515 540//514 
s 1026
f 517//491 518//492 542//516 541//515 
s 514
f 518//492 519//493 543//517 542//516 
s 1026
f 519//493 520//494 544//518 543//517 
s 515
f 520//494 498//472 522//496 544//518 
s 264
f 522//496 521//495 545//519 546//520 
s 536
f 521//495 523//497 547//521 545//519 
s 1040
f 523//497 524//498 548//522 547//521 
s 528
f 524//498 525//499 549//523 548//522 
s 1040
f 525//499 526//500 550//524 549//523 
s 528
f 526//500 527//501 551//525 550//524 
s 1040
f 527//501 528//502 552//526 551//525 
s 528
f 528//502 529//503 553//527 552//526 
s 1040
f 529//503 530//504 554//528 553//527 
s 528
f 530//504 531//505 555//529 554//528 
s 1040
f 531//505 532//506 556//530 555//529 
s 528
f 532//506 533//507 557//531 556//530 
s 1040
f 533//507 534//508 558//532 557//531 
s 528
f 534//508 535//509 559//533 558//532 
s 1040
f 535//509 536//510 560//534 559//533 
s 528
f 536//510 537//511 561//535 560//534 
s 1040
f 537//511 538//512 562//536 561//535 
s 528
f 538//512 539//513 563//537 562//536 
s 1040
f 539//513 540//514 564//538 563//537 
s 528
f 540//514 541//515 565//539 564//538 
s 1040
f 541//515 542//516 566//540 565//539 
s 528
f 542//516 543//517 567//541 566//540 
s 1040
f 543//517 544//518 568//542 567//541 
s 536
f 544//518 522//496 546//520 568//542 
s 257
f 546//520 545//519 569//543 570//544 
s 515
f 545//519 547//521 571//545 569//543 
s 1026
f 547//521 548//522 572//546 571//545 
s 514
f 548//522 549//523 573//547 572//546 
s 1026
f 549//523 550//524 574//548 573//547 
s 514
f 550//524 551//525 575//549 574//548 
s 1026
f 551//525 552//526 576//550 575//549 
s 514
f 552//526 553//527 577//551 576//550 
s 1026
f 553//527 554//528 578//552 577//551 
s 514
f 554//528 555//529 579//553 578//552 
s 1026
f 555//529 556//530 580//554 579//553 
s 514
f 556//530 557//531 581//555 580//554 
s 1026
f 557//531 558//532 582//556 581//555 
s 514
f 558//532 559//533 583//557 582//556 
s 1026
f 559//533 560//534 584//558 583//557 
s 514
f 560//534 561//535 585//559 584//558 
s 1026
f 561//535 562//536 586//560 585//559 
s 514
f 562//536 563//537 587//561 586//560 
s 1026
f 563//537 564//538 588//562 587//561 
s 514
f 564//538 565//539 589//563 588//562 
s 1026
f 565//539 566//540 590//564 589//563 
s 514
f 566//540 567//541 591//565 590//564 
s 1026
f 567//541 568//542 592//566 591//565 
s 515
f 568//542 546//520 570//544 592//566 
s 264
f 570//544 569//543 593//567 594//568 
s 536
f 569//543 571//545 595//569 593//567 
s 1040
f 571//545 572//546 596//570 595//569 
s 528
f 572//546 573//547 597//571 596//570 
s 1040
f 573//547 574//548 598//572 597//571 
s 528
f 574//548 575//549 599//573 598//572 
s 1040
f 575//549 576//550 600//574 599//573 
s 528
f 576//550 577//551 601//575 600//574 
s 1040
f 577//551 578//552 602//576 601//575 
s 528
f 578//552 579//553 603//577 602//576 
s 1040
f 579//553 580//554 604//578 603//577 
s 528
f 580//554 581//555 605//579 604//578 
s 1040
f 581//555 582//556 606//580 605//579 
s 528
f 582//556 583//557 607//581 606//580 
s 1040
f 583//557 584//558 608//582 607//581 
s 528
f 584//558 585//559 609//583 608//582 
s 1040
f 585//559 586//560 610//584 609//583 
s 528
f 586//560 587//561 611//585 610//584 
s 1040
f 587//561 588//562 612//586 611//585 
s 528
f 588//562 589//563 613//587 612//586 
s 1040
f 589//563 590//564 614//588 613//587 
s 528
f 590//564 591//565 615//589 614//588 
s 1040
f 591//565 592//566 616//590 615//589 
s 536
f 592//566 570//544 594//568 616//590 
s 2147483648
f 183//157 181//155 187//161 185//159 
f 181//155 179//153 189//163 187//161 
f 179//153 177//151 191//165 189//163 
f 175//149 173//147 191//165 177//151 
f 171//145 169//143 191//165 173//147 
f 167//141 165//139 191//165 169//143 
f 162//136 161//135 191//165 165//139 
f 207//181 205//179 191//165 161//135 
f 203//177 201//175 191//165 205//179 
f 199//173 197//171 191//165 201//175 
f 195//169 193//167 191//165 197//171 
f 604//578 605//579 606//580 603//577 
f 603//577 606//580 607//581 602//576 
f 602//576 607//581 608//582 601//575 
f 600//574 601//575 608//582 599//573 
f 598//572 599//573 608//582 597//571 
f 596//570 597//571 608//582 595//569 
f 593//567 595//569 608//582 594//568 
f 616//590 594//568 608//582 615//589 
f 614//588 615//589 608//582 613//587 
f 612//586 613//587 608//582 611//585 
f 610//584 611//585 608//582 609//583 
# 454 polygons

